<svg width="500" height="404" viewBox="0 0 500 404" fill="none" xmlns="http://www.w3.org/2000/svg">
<g clip-path="url(#clip0_27_390)">
<g clip-path="url(#clip1_27_390)">
<path d="M299.138 146.257C297.45 150.288 295.309 154.116 292.73 157.631C281.446 146.351 266.129 140.008 250.172 140.008C217.163 140.008 190 167.192 190 200.234C190 216.716 196.752 232.495 208.692 243.869L210.912 245.837C221.758 254.977 235.496 260.007 249.672 260.007C281.055 260.007 307.437 235.417 309.672 204.078C311.313 188.736 306.812 169.332 299.138 146.257ZM217.241 244.213C216.272 245.416 214.788 246.119 213.24 246.119C210.412 246.119 208.098 243.791 208.098 240.963C208.098 238.135 210.427 235.807 213.24 235.807C214.413 235.807 215.569 236.214 216.476 236.964C218.679 238.745 219.023 242.01 217.241 244.213ZM298.888 226.184C284.04 245.978 252.329 239.307 231.995 240.26C231.995 240.26 228.385 240.479 224.759 241.072C224.759 241.072 226.119 240.494 227.885 239.823C242.154 234.854 248.906 233.886 257.58 229.433C273.912 221.122 290.057 202.937 293.418 184.018C287.197 202.218 268.349 217.857 251.172 224.215C239.403 228.558 218.148 232.777 218.148 232.777L217.288 232.324C202.816 225.278 202.378 193.923 228.682 183.799C240.201 179.362 251.219 181.799 263.66 178.831C276.945 175.675 292.308 165.708 298.56 152.71C305.561 173.504 313.985 206.062 298.888 226.184Z" fill="#77BC1F"/>
</g>
<circle cx="250" cy="200" r="98.75" stroke="url(#paint0_linear_27_390)" stroke-width="2.5" stroke-linecap="round"/>
<g clip-path="url(#clip2_27_390)">
<path d="M453.352 63.8451C450.55 63.8451 448.039 65.0862 446.319 67.0403L441.912 63.9204C442.38 62.6323 442.648 61.2493 442.648 59.8017C442.648 58.3791 442.389 57.0193 441.937 55.7503L446.334 52.6634C448.054 54.6076 450.559 55.842 453.352 55.842C458.523 55.842 462.73 51.6354 462.73 46.464C462.73 41.2926 458.523 37.086 453.352 37.086C448.181 37.086 443.974 41.2926 443.974 46.464C443.974 47.3896 444.114 48.2822 444.365 49.1275L439.965 52.2159C438.126 49.9356 435.48 48.3434 432.465 47.8574V42.5544C436.713 41.6622 439.913 37.8879 439.913 33.378C439.913 28.2066 435.706 24 430.535 24C425.365 24 421.157 28.2066 421.157 33.378C421.157 37.8275 424.275 41.5552 428.438 42.5111V47.8831C422.757 48.8803 418.422 53.8386 418.422 59.8017C418.422 65.7938 422.8 70.7702 428.522 71.7336V77.406C424.316 78.3304 421.157 82.081 421.157 86.5607C421.157 91.7321 425.365 95.9387 430.535 95.9387C435.706 95.9387 439.913 91.7321 439.913 86.5607C439.913 82.081 436.754 78.3304 432.549 77.406V71.7334C435.445 71.2455 438.065 69.7215 439.922 67.4453L444.358 70.5854C444.112 71.4231 443.974 72.3068 443.974 73.2231C443.974 78.3944 448.181 82.6011 453.352 82.6011C458.523 82.6011 462.73 78.3944 462.73 73.2231C462.73 68.0517 458.523 63.8451 453.352 63.8451ZM453.352 41.9171C455.859 41.9171 457.899 43.9573 457.899 46.464C457.899 48.9707 455.859 51.0107 453.352 51.0107C450.844 51.0107 448.805 48.9707 448.805 46.464C448.805 43.9573 450.844 41.9171 453.352 41.9171ZM425.988 33.378C425.988 30.8713 428.028 28.8313 430.535 28.8313C433.043 28.8313 435.082 30.8713 435.082 33.378C435.082 35.8847 433.043 37.9247 430.535 37.9247C428.028 37.9247 425.988 35.8847 425.988 33.378ZM435.082 86.5607C435.082 89.0674 433.043 91.1075 430.535 91.1075C428.028 91.1075 425.988 89.0674 425.988 86.5607C425.988 84.0541 428.028 82.014 430.535 82.014C433.043 82.014 435.082 84.0541 435.082 86.5607ZM430.535 66.1429C427.038 66.1429 424.193 63.2985 424.193 59.8017C424.193 56.3046 427.038 53.4598 430.535 53.4598C434.032 53.4598 436.877 56.3046 436.877 59.8017C436.877 63.2985 434.032 66.1429 430.535 66.1429ZM453.352 77.77C450.844 77.77 448.805 75.7298 448.805 73.2231C448.805 70.7164 450.844 68.6764 453.352 68.6764C455.859 68.6764 457.899 70.7164 457.899 73.2231C457.899 75.7298 455.859 77.77 453.352 77.77Z" fill="#231F20"/>
</g>
<circle cx="440" cy="60" r="58.75" stroke="url(#paint1_linear_27_390)" stroke-width="2.5" stroke-linecap="round"/>
<line x1="333.283" y1="139.126" x2="390.624" y2="98.976" stroke="url(#paint2_linear_27_390)" stroke-width="2.5"/>
<circle cx="440" cy="336" r="58.75" stroke="url(#paint3_linear_27_390)" stroke-width="2.5" stroke-linecap="round"/>
<path d="M473.545 352.533C469.768 354.502 450.201 362.547 446.035 364.719C441.869 366.892 439.556 366.87 436.265 365.297C432.974 363.724 412.152 355.313 408.401 353.52C406.526 352.624 405.54 351.868 405.54 351.153V343.999C405.54 343.999 432.648 338.098 437.025 336.528C441.401 334.958 442.919 334.901 446.644 336.265C450.368 337.63 472.637 341.647 476.318 342.995C476.318 342.995 476.316 349.385 476.316 350.048C476.317 350.756 475.467 351.532 473.545 352.533Z" fill="#A42122"/>
<path d="M473.545 345.377C469.768 347.345 450.201 355.391 446.035 357.563C441.869 359.735 439.556 359.714 436.265 358.14C432.974 356.568 412.152 348.156 408.401 346.364C404.65 344.571 404.571 343.337 408.256 341.894C411.94 340.451 432.648 332.326 437.025 330.756C441.401 329.187 442.92 329.129 446.644 330.494C450.369 331.858 469.819 339.6 473.499 340.948C477.181 342.297 477.322 343.408 473.545 345.377Z" fill="#D82F27"/>
<path d="M473.545 340.867C469.768 342.836 450.201 350.881 446.035 353.053C441.869 355.225 439.556 355.204 436.265 353.63C432.974 352.058 412.152 343.646 408.401 341.854C406.526 340.958 405.54 340.203 405.54 339.488V332.333C405.54 332.333 432.648 326.432 437.025 324.861C441.401 323.292 442.919 323.235 446.644 324.599C450.368 325.963 472.637 329.98 476.318 331.329C476.318 331.329 476.316 337.718 476.316 338.382C476.317 339.089 475.467 339.865 473.545 340.867Z" fill="#A42122"/>
<path d="M473.545 333.711C469.768 335.679 450.201 343.724 446.035 345.897C441.869 348.069 439.556 348.047 436.265 346.474C432.974 344.902 412.152 336.489 408.401 334.697C404.65 332.905 404.571 331.671 408.256 330.227C411.94 328.785 432.648 320.66 437.025 319.09C441.401 317.52 442.92 317.463 446.644 318.828C450.369 320.192 469.819 327.933 473.499 329.282C477.181 330.631 477.322 331.742 473.545 333.711Z" fill="#D82F27"/>
<path d="M473.545 328.768C469.768 330.737 450.201 338.782 446.035 340.954C441.869 343.126 439.556 343.104 436.265 341.532C432.974 339.959 412.152 331.547 408.401 329.755C406.526 328.859 405.541 328.103 405.541 327.389V320.234C405.541 320.234 432.648 314.333 437.025 312.763C441.401 311.193 442.919 311.136 446.644 312.501C450.368 313.865 472.637 317.882 476.318 319.23C476.318 319.23 476.316 325.62 476.316 326.283C476.317 326.99 475.467 327.766 473.545 328.768Z" fill="#A42122"/>
<path d="M473.545 321.612C469.768 323.58 450.201 331.626 446.035 333.798C441.869 335.969 439.556 335.948 436.265 334.375C432.974 332.802 412.152 324.391 408.401 322.599C404.65 320.806 404.571 319.572 408.256 318.129C411.94 316.686 432.648 308.562 437.025 306.991C441.401 305.421 442.92 305.365 446.644 306.729C450.369 308.094 469.819 315.835 473.499 317.183C477.181 318.531 477.322 319.643 473.545 321.612Z" fill="#D82F27"/>
<path d="M450.204 314.722L444.071 315.358L442.698 318.661L440.48 314.975L433.399 314.339L438.683 312.433L437.097 309.508L442.044 311.443L446.709 309.916L445.448 312.941L450.204 314.722Z" fill="white"/>
<path d="M442.331 330.748L430.885 326.001L447.287 323.484L442.331 330.748Z" fill="white"/>
<path d="M426.463 323.354C431.304 323.354 435.229 321.832 435.229 319.956C435.229 318.079 431.304 316.558 426.463 316.558C421.621 316.558 417.697 318.079 417.697 319.956C417.697 321.832 421.621 323.354 426.463 323.354Z" fill="white"/>
<path d="M457.452 315.624L467.158 319.46L457.46 323.292L457.452 315.624Z" fill="#791514"/>
<path d="M446.713 319.872L457.452 315.624L457.46 323.292L456.407 323.704L446.713 319.872Z" fill="#AD2524"/>
<line x1="321.717" y1="274.976" x2="379.058" y2="315.126" stroke="url(#paint4_linear_27_390)" stroke-width="2.5"/>
<circle cx="60" cy="344" r="58.75" stroke="url(#paint5_linear_27_390)" stroke-width="2.5" stroke-linecap="round"/>
<g clip-path="url(#clip3_27_390)">
<mask id="mask0_27_390" style="mask-type:luminance" maskUnits="userSpaceOnUse" x="12" y="300" width="199" height="257">
<path d="M12.7684 300.899H210.058V556.215H12.7684V300.899Z" fill="white"/>
</mask>
<g mask="url(#mask0_27_390)">
<path d="M32.5912 359.848C33.1792 359.848 33.7363 359.987 34.0151 360.266C34.0616 360.7 33.6744 361.396 33.4268 361.396C33.1328 361.288 32.8543 361.225 32.5139 361.225C31.1058 361.225 30.4091 362.68 30.4091 364.119C30.4091 365.017 30.7186 365.559 31.4307 365.559C32.1889 365.559 32.9626 365.048 33.3959 364.661C33.5042 364.738 33.6434 364.986 33.6434 365.265C33.6434 365.574 33.5506 365.868 33.2721 366.147C32.7769 366.642 31.9413 367.06 30.7341 367.06C29.3414 367.06 28.3821 366.27 28.3821 364.429C28.3821 362.015 29.9759 359.848 32.5758 359.848H32.5912Z" fill="#373535"/>
<path d="M37.1401 365.481C37.8984 365.481 39.2758 364.15 39.6627 361.613C39.6781 361.458 39.6936 361.411 39.7246 361.257C39.5544 361.195 39.3222 361.148 39.0898 361.148C38.5173 361.148 37.9293 361.319 37.4032 362.03C36.8616 362.789 36.6295 363.732 36.6295 364.491C36.6295 365.141 36.8152 365.481 37.1247 365.481H37.1401ZM34.6486 364.785C34.6486 363.872 34.958 362.278 36.1189 361.117C37.1092 360.096 38.3161 359.848 39.4151 359.848C40.1424 359.848 41.1327 360.08 41.7516 360.204C41.5969 360.885 41.2255 363.454 41.0553 364.939C40.9779 365.574 40.947 366.456 40.9779 366.781C40.4673 366.998 39.5079 367.06 39.2446 367.06C39.1056 367.06 39.0743 366.425 39.1211 365.822C39.1362 365.621 39.1675 365.327 39.1827 365.203C38.5792 366.209 37.3877 367.06 36.1344 367.06C35.2369 367.06 34.6486 366.317 34.6486 364.8V364.785Z" fill="#373535"/>
<path d="M45.6042 359.848C46.2386 359.848 46.8421 360.08 47.1209 360.374C47.1054 360.808 46.765 361.535 46.2231 361.334C45.991 361.256 45.7589 361.195 45.4494 361.195C45.0316 361.195 44.6758 361.381 44.6758 361.767C44.6758 362.061 44.8924 362.278 45.9291 363.005C46.6722 363.547 46.9662 364.027 46.9662 364.707C46.9662 365.837 45.8982 367.06 44.0413 367.06C43.2831 367.06 42.6174 366.766 42.4008 366.456C42.1223 365.992 42.3389 365.079 42.6487 365.233C43.051 365.435 43.7164 365.652 44.258 365.652C44.7686 365.652 45.0935 365.419 45.0935 365.11C45.0935 364.847 44.8614 364.615 43.9175 363.949C43.1281 363.361 42.8805 362.82 42.8805 362.201C42.8805 360.916 43.9794 359.848 45.5887 359.848H45.6042Z" fill="#373535"/>
<path d="M50.9423 359.848C51.577 359.848 52.1805 360.08 52.459 360.374C52.4436 360.808 52.1035 361.535 51.5616 361.334C51.3295 361.256 51.097 361.195 50.7879 361.195C50.3701 361.195 50.0142 361.381 50.0142 361.767C50.0142 362.061 50.2308 362.278 51.2676 363.005C52.0103 363.547 52.3043 364.027 52.3043 364.707C52.3043 365.837 51.2363 367.06 49.3795 367.06C48.6212 367.06 47.9559 366.766 47.7393 366.456C47.4607 365.992 47.6774 365.079 47.9868 365.233C48.3891 365.435 49.0545 365.652 49.5961 365.652C50.1067 365.652 50.4317 365.419 50.4317 365.11C50.4317 364.847 50.1996 364.615 49.2557 363.949C48.4665 363.361 48.2189 362.82 48.2189 362.201C48.2189 360.916 49.3176 359.848 50.9271 359.848H50.9423Z" fill="#373535"/>
<path d="M55.8162 365.481C56.5748 365.481 57.9519 364.15 58.3388 361.613C58.3542 361.458 58.37 361.411 58.401 361.257C58.2304 361.195 57.9987 361.148 57.7662 361.148C57.1937 361.148 56.6057 361.319 56.0793 362.03C55.538 362.789 55.3056 363.732 55.3056 364.491C55.3056 365.141 55.4913 365.481 55.8011 365.481H55.8162ZM53.3246 364.785C53.3246 363.872 53.6344 362.278 54.795 361.117C55.7853 360.096 56.9922 359.848 58.0912 359.848C58.8184 359.848 59.8091 360.08 60.428 360.204C60.2733 360.885 59.9019 363.454 59.7317 364.939C59.654 365.574 59.6234 366.456 59.654 366.781C59.1434 366.998 58.1843 367.06 57.921 367.06C57.782 367.06 57.7508 366.425 57.7972 365.822C57.8127 365.621 57.8436 365.327 57.8591 365.203C57.2556 366.209 56.0641 367.06 54.8108 367.06C53.913 367.06 53.3246 366.317 53.3246 364.8V364.785Z" fill="#373535"/>
<path d="M63.9244 361.86C64.6365 360.715 65.5646 359.848 66.8647 359.848C67.9633 359.848 68.3192 360.87 68.1184 362.324C68.01 363.005 67.8244 363.98 67.7003 364.878C67.5919 365.636 67.5146 366.317 67.5304 366.781C67.128 366.982 65.9517 367.06 65.6887 367.06C65.5804 367.06 65.5646 366.208 65.7041 365.311C65.8276 364.568 66.091 363.222 66.2148 362.448C66.2925 362 66.2767 361.458 65.8434 361.458C65.2706 361.458 63.9092 362.371 63.228 366.116C63.1813 366.425 63.0578 366.611 62.8873 366.719C62.6555 366.859 62.16 366.982 61.1546 366.998C61.3403 366.054 61.6343 364.119 61.8509 362.696C62.0517 361.396 62.1294 360.56 62.0827 360.235C62.346 360.142 63.7235 359.848 63.8776 359.848C64.0485 359.848 64.0791 360.328 63.9244 361.489C63.9092 361.597 63.8934 361.767 63.8776 361.86H63.9244Z" fill="#373535"/>
<path d="M71.7852 365.466C72.4658 365.466 73.8436 364.197 74.2301 361.953C74.2459 361.829 74.2923 361.597 74.3232 361.458C74.1218 361.272 73.8587 361.148 73.4413 361.148C71.8778 361.148 71.1815 363.021 71.1815 364.367C71.1815 365.095 71.4294 365.466 71.7695 365.466H71.7852ZM70.764 367.06C69.7737 367.06 69.1547 366.178 69.1547 364.661C69.1547 362.154 70.7172 359.848 73.3481 359.848C73.8126 359.848 74.2301 359.972 74.4931 360.127C74.6324 359.415 74.9573 357.217 74.9731 356.568C75.4061 356.49 76.3348 356.351 76.7523 356.351C76.9231 356.351 76.9696 356.521 76.9074 356.908C76.5357 359.229 75.8709 363.686 75.7468 364.677C75.6537 365.512 75.6385 366.332 75.6537 366.797C75.1588 367.013 74.1527 367.06 73.89 367.06C73.781 367.06 73.7195 366.348 73.7504 365.713C73.7662 365.512 73.7968 365.218 73.7968 365.172C73.0231 366.441 71.9551 367.06 70.7791 367.06H70.764Z" fill="#373535"/>
<path d="M79.8312 362.077C80.6516 360.251 81.6261 359.848 82.2609 359.848C82.4624 359.848 82.7715 359.972 82.9108 360.127C82.973 360.638 82.5707 361.659 82.2145 362.046C82.0284 361.953 81.797 361.86 81.5336 361.86C81.0072 361.86 79.9705 362.68 79.3206 366.208C79.2738 366.503 79.1813 366.627 79.0114 366.704C78.7484 366.859 77.7113 366.982 77.2165 366.998C77.4479 365.729 77.8502 363.145 78.0053 361.628C78.0517 361.241 78.0669 360.529 78.0362 360.251C78.3302 360.112 79.4911 359.848 79.7538 359.848C79.8934 359.848 80.0017 360.7 79.7844 362.077H79.8312Z" fill="#373535"/>
<path d="M85.2932 365.481C86.052 365.481 87.4289 364.15 87.816 361.613C87.8312 361.458 87.847 361.411 87.8779 361.257C87.7077 361.195 87.4756 361.148 87.2432 361.148C86.6707 361.148 86.0827 361.319 85.5562 362.03C85.015 362.789 84.7826 363.732 84.7826 364.491C84.7826 365.141 84.9682 365.481 85.278 365.481H85.2932ZM82.8016 364.785C82.8016 363.872 83.1114 362.278 84.2719 361.117C85.2622 360.096 86.4692 359.848 87.5681 359.848C88.2954 359.848 89.2857 360.08 89.9053 360.204C89.7502 360.885 89.3789 363.454 89.2087 364.939C89.1313 365.574 89.1 366.456 89.1313 366.781C88.6207 366.998 87.6613 367.06 87.3979 367.06C87.259 367.06 87.228 366.425 87.2741 365.822C87.2896 365.621 87.3206 365.327 87.3364 365.203C86.7326 366.209 85.5414 367.06 84.2877 367.06C83.3899 367.06 82.8016 366.317 82.8016 364.8V364.785Z" fill="#373535"/>
</g>
<mask id="mask1_27_390" style="mask-type:luminance" maskUnits="userSpaceOnUse" x="12" y="300" width="199" height="257">
<path d="M12.7684 300.899H210.058V556.215H12.7684V300.899Z" fill="white"/>
</mask>
<g mask="url(#mask1_27_390)">
<path d="M80.7488 333.625C81.2595 339.573 71.8982 345.235 59.8404 346.269C47.7825 347.304 37.5938 343.319 37.0838 337.371C36.5731 331.422 45.9344 325.761 57.9922 324.726C70.0501 323.692 80.2388 327.676 80.7488 333.625Z" fill="#BBE6FB"/>
</g>
<mask id="mask2_27_390" style="mask-type:luminance" maskUnits="userSpaceOnUse" x="12" y="300" width="199" height="257">
<path d="M12.7684 300.899H210.058V556.215H12.7684V300.899Z" fill="white"/>
</mask>
<g mask="url(#mask2_27_390)">
<mask id="mask3_27_390" style="mask-type:luminance" maskUnits="userSpaceOnUse" x="43" y="325" width="30" height="21">
<path d="M43.7183 325.422H72.1802V345.465H43.7183V325.422Z" fill="white"/>
</mask>
<g mask="url(#mask3_27_390)">
<g opacity="0.350006">
<path d="M58.3463 325.424C53.7467 325.349 48.3645 327.175 44.3597 328.886C43.9429 330.087 43.7185 331.364 43.7185 332.688C43.7185 339.744 50.0898 345.465 57.9494 345.465C65.8091 345.465 72.1804 339.744 72.1804 332.688C72.1804 330.455 71.5408 328.357 70.4193 326.531C67.2153 326.033 62.8085 325.496 58.3463 325.424Z" fill="white"/>
</g>
</g>
</g>
<mask id="mask4_27_390" style="mask-type:luminance" maskUnits="userSpaceOnUse" x="12" y="300" width="199" height="257">
<path d="M12.7684 300.899H210.058V556.215H12.7684V300.899Z" fill="white"/>
</mask>
<g mask="url(#mask4_27_390)">
<path d="M57.9492 325.423C55.4028 325.267 51.0138 326.596 47.3539 327.921C46.7978 329.233 46.489 330.669 46.489 332.177C46.489 338.359 52.0943 343.371 58.024 343.371C63.9146 343.371 69.1263 338.351 69.559 332.177C69.6995 330.166 69.0074 328.271 68.0464 326.638C64.2521 325.97 60.2254 325.562 57.9492 325.423Z" fill="white"/>
</g>
<mask id="mask5_27_390" style="mask-type:luminance" maskUnits="userSpaceOnUse" x="12" y="300" width="199" height="257">
<path d="M12.7684 300.899H210.058V556.215H12.7684V300.899Z" fill="white"/>
</mask>
<g mask="url(#mask5_27_390)">
<path d="M51.4145 331.365C51.7269 330.673 52.2001 330.334 52.6585 329.754C52.6076 329.617 52.496 329.168 52.496 329.012C52.496 328.317 53.0598 327.753 53.7552 327.753C53.9193 327.753 54.0759 327.786 54.2194 327.843C56.3035 326.254 59.0472 325.562 61.8044 326.178C62.0562 326.235 62.3031 326.304 62.5455 326.379C59.8205 326.001 56.749 326.966 54.6598 328.653C54.7236 328.803 54.9006 329.234 54.9006 329.407C54.9006 330.102 54.4505 330.271 53.7552 330.271C53.5972 330.271 53.4464 330.241 53.3068 330.188C52.8348 330.822 52.2565 332.029 51.9735 332.784C53.1288 333.817 54.1727 334.192 55.533 334.7C55.5295 334.635 55.5798 334.575 55.5798 334.509C55.5798 332.413 57.4253 330.709 59.522 330.709C61.4008 330.709 62.9565 332.075 63.2602 333.868C64.1977 333.271 65.1042 332.814 65.795 331.93C65.6338 331.734 65.46 331.177 65.46 330.903C65.46 330.272 65.972 329.76 66.6028 329.76C66.6921 329.76 66.7779 329.773 66.8614 329.793C67.2121 329.072 67.4768 328.308 67.646 327.52C64.3675 325.093 58.0243 325.424 58.0243 325.424C58.0243 325.424 52.9767 325.161 49.5596 326.826C49.7875 328.474 50.4448 330.04 51.4145 331.365Z" fill="#373535"/>
<path d="M67.0844 330.419C67.3162 330.628 67.4426 330.811 67.5422 330.99C67.8488 331.541 67.2337 332.046 66.6028 332.046C66.5387 332.046 66.4768 332.037 66.4152 332.027C65.7044 333.138 64.4594 334.562 63.3533 335.279C65.0493 335.557 66.6486 336.236 67.9213 337.286C68.8481 335.625 69.5589 333.228 69.5589 331.191C69.5589 329.641 68.8745 328.504 67.8413 327.671C67.7872 328.501 67.3439 329.663 67.0844 330.419Z" fill="#373535"/>
<path d="M53.3172 340.936C53.8823 339.376 55.2724 338.167 56.5873 337.103C56.3949 336.839 56.1063 336.187 55.9861 335.878C54.3823 335.391 52.9632 334.478 51.8627 333.269C51.8546 333.304 51.8446 333.339 51.8362 333.374C51.629 334.302 51.5909 335.233 51.6941 336.141C52.462 336.284 53.0432 336.957 53.0432 337.766C53.0432 338.246 52.6225 338.942 52.2959 339.245C52.6509 340.011 52.893 340.38 53.3172 340.936Z" fill="#373535"/>
<path d="M53.2177 342.247C52.5437 341.576 52.0775 340.239 51.6401 339.4C51.5582 339.413 51.4744 339.421 51.3886 339.421C50.4744 339.421 49.5166 338.654 49.7333 337.766C49.8532 337.275 50.1923 336.954 50.7445 336.685C50.6188 335.668 50.5846 334.205 50.8209 333.147C50.8886 332.844 51.0321 332.702 51.1272 332.414C50.1185 330.938 49.4667 329 49.4667 327.078C49.4667 327.008 49.4702 326.939 49.4718 326.869C47.7671 327.724 46.489 329.071 46.489 331.191C46.489 335.881 49.1901 340.481 53.209 342.285C53.2119 342.272 53.2145 342.259 53.2177 342.247Z" fill="#373535"/>
<path d="M63.1001 335.763C62.5808 337.24 61.1766 338.301 59.5219 338.301C58.6366 338.301 57.8246 337.996 57.1792 337.488C55.8488 338.524 54.6418 340.345 54.0284 341.924C54.3037 342.22 54.4955 342.464 54.8043 342.726C55.735 342.969 57.0167 342.726 58.0241 342.726C62.0763 342.726 65.6652 340.924 67.7229 337.762C66.3548 336.815 64.741 335.913 63.1001 335.763Z" fill="#373535"/>
</g>
<mask id="mask6_27_390" style="mask-type:luminance" maskUnits="userSpaceOnUse" x="12" y="300" width="199" height="257">
<path d="M12.7684 300.899H210.058V556.215H12.7684V300.899Z" fill="white"/>
</mask>
<g mask="url(#mask6_27_390)">
<path d="M51.3107 331.913C51.623 331.221 52.0147 330.581 52.4728 330.001C52.4219 329.864 52.3922 329.716 52.3922 329.56C52.3922 328.865 52.956 328.301 53.6514 328.301C53.8155 328.301 53.9721 328.334 54.1156 328.391C56.1997 326.802 58.9434 326.11 61.7006 326.726C61.9523 326.783 62.1993 326.852 62.4417 326.927C59.7167 326.549 56.9012 327.385 54.8119 329.071C54.8757 329.222 54.9105 329.387 54.9105 329.56C54.9105 330.256 54.3467 330.819 53.6514 330.819C53.4934 330.819 53.3425 330.789 53.203 330.736C52.731 331.37 52.3451 332.07 52.0621 332.825C53.0543 333.894 54.2722 334.74 55.6323 335.248C55.6291 335.183 55.6223 335.119 55.6223 335.053C55.6223 332.957 57.3215 331.257 59.4182 331.257C61.297 331.257 62.8527 332.623 63.1564 334.416C64.0938 333.819 64.9268 333.053 65.6173 332.17C65.4562 331.973 65.3562 331.725 65.3562 331.451C65.3562 330.82 65.8681 330.309 66.499 330.309C66.5883 330.309 66.6741 330.321 66.7576 330.341C67.1083 329.62 67.373 328.856 67.5422 328.068C64.2637 325.641 57.9205 325.972 57.9205 325.972C57.9205 325.972 52.8728 325.709 49.4557 327.374C49.6837 329.022 50.341 330.588 51.3107 331.913Z" fill="#1287B1"/>
<path d="M67.2614 330.606C67.4932 330.815 67.6418 331.114 67.6418 331.451C67.6418 332.082 67.1299 332.594 66.499 332.594C66.4349 332.594 66.373 332.585 66.3114 332.575C65.6006 333.686 64.6586 334.633 63.5522 335.35C65.1873 335.605 66.7263 336.299 67.9987 337.349C68.9255 335.688 69.4551 333.776 69.4551 331.739C69.4551 330.189 68.7707 329.052 67.7375 328.219C67.6834 329.049 67.5209 329.85 67.2614 330.606Z" fill="#1287B1"/>
<path d="M53.4916 341.311C54.0567 339.751 55.0387 338.35 56.3536 337.287C56.1612 337.023 56.0025 336.735 55.8823 336.426C54.2782 335.939 52.8595 335.026 51.7589 333.817C51.7508 333.852 51.7405 333.887 51.7325 333.922C51.5249 334.85 51.4868 335.781 51.5903 336.689C52.3579 336.832 52.9394 337.505 52.9394 338.314C52.9394 338.794 52.7334 339.226 52.4069 339.529C52.7031 340.157 53.0674 340.755 53.4916 341.311Z" fill="#1287B1"/>
<path d="M53.2133 342.227C52.5393 341.557 51.9735 340.787 51.5364 339.948C51.4542 339.961 51.3704 339.969 51.2849 339.969C50.3707 339.969 49.6296 339.228 49.6296 338.314C49.6296 337.659 50.0113 337.094 50.5635 336.826C50.4381 335.809 50.4806 334.753 50.7173 333.695C50.7849 333.392 50.8675 333.097 50.9626 332.809C49.9539 331.333 49.363 329.548 49.363 327.626C49.363 327.556 49.3662 327.487 49.3678 327.417C47.6631 328.272 46.3849 329.619 46.3849 331.739C46.3849 336.429 49.1857 340.462 53.2046 342.266C53.2075 342.253 53.2101 342.24 53.2133 342.227Z" fill="#1287B1"/>
<path d="M62.9963 336.311C62.477 337.788 61.0727 338.849 59.418 338.849C58.5328 338.849 57.7207 338.544 57.0754 338.036C55.7449 339.073 54.7408 340.485 54.1276 342.064C54.4026 342.36 54.6966 342.64 55.0054 342.902C55.9364 343.144 56.9129 343.274 57.9203 343.274C61.9724 343.274 65.5349 341.182 67.5926 338.021C66.2245 337.074 64.6371 336.461 62.9963 336.311Z" fill="#1287B1"/>
</g>
<mask id="mask7_27_390" style="mask-type:luminance" maskUnits="userSpaceOnUse" x="12" y="300" width="199" height="257">
<path d="M12.7684 300.899H210.058V556.215H12.7684V300.899Z" fill="white"/>
</mask>
<g mask="url(#mask7_27_390)">
<mask id="mask8_27_390" style="mask-type:luminance" maskUnits="userSpaceOnUse" x="51" y="327" width="16" height="16">
<path d="M51.8401 327.856H66.6365V342.64H51.8401V327.856Z" fill="white"/>
</mask>
<g mask="url(#mask8_27_390)">
<path d="M63.1297 335.332L66.6367 334.496L63.1164 334.316L65.9813 332.127L62.7306 333.292L64.9398 330.231L61.8885 332.259L62.9553 328.675L60.8599 331.629L60.8122 327.896L59.4334 331.221L58.2838 327.856L58.346 331.82L56.3593 328.267L57.4344 332.039L54.2117 329.696L56.7361 332.868L52.7352 331.397L55.8928 333.733L51.8439 333.857L55.9837 334.926L51.8403 335.821L55.9302 336.118L52.4812 338.327L56.0327 337.039L53.5685 340.16L56.6823 337.649L55.5611 341.837L57.965 338.428L57.6281 342.454L58.9927 338.805L60.1542 342.64L60.4366 338.793L62.1606 342.075L61.1419 338.321L64.2989 340.767L62.2609 337.649L65.7244 338.998L63.0761 336.396L66.6273 336.675L63.1297 335.332Z" fill="white"/>
</g>
</g>
<mask id="mask9_27_390" style="mask-type:luminance" maskUnits="userSpaceOnUse" x="12" y="300" width="199" height="257">
<path d="M12.7684 300.899H210.058V556.215H12.7684V300.899Z" fill="white"/>
</mask>
<g mask="url(#mask9_27_390)">
<mask id="mask10_27_390" style="mask-type:luminance" maskUnits="userSpaceOnUse" x="25" y="322" width="70" height="21">
<path d="M25.7932 322.115H94.2646V342.043H25.7932V322.115Z" fill="white"/>
</mask>
<g mask="url(#mask10_27_390)">
<g opacity="0.350006">
<path d="M25.7932 342.043C36.6698 331.167 45.3567 327.809 53.2405 326.276C54.2837 326.073 54.481 323.794 54.481 323.794C54.481 323.794 54.627 325.473 55.3572 325.691C56.087 325.911 57.0358 323.064 57.0358 323.064C57.0358 323.064 56.1599 325.619 57.0358 325.765C57.912 325.911 59.5177 323.283 59.5177 323.283C59.5177 323.283 58.861 325.545 59.2991 325.691C59.7366 325.838 61.9264 322.407 61.9264 322.407C61.9264 322.407 60.6124 324.67 61.8536 324.889C63.095 325.108 64.9054 323.344 64.9054 323.344C64.9054 323.344 63.4818 324.958 64.1163 325.181C66.8174 326.13 69.003 322.619 69.003 322.619C69.003 322.619 68.4966 324.159 67.1826 325.838C70.0291 326.567 72.1435 322.279 72.1435 322.279L70.0291 326.567C71.1242 327.152 75.5046 322.115 75.5046 322.115C75.5046 322.115 73.2415 326.057 71.9276 326.859C72.6574 327.444 75.2853 325.108 75.2853 325.108C75.2853 325.108 73.1684 327.735 73.9714 327.881C75.1393 328.83 79.4458 322.991 79.4458 322.991C79.4458 322.991 77.7672 326.421 75.2853 329.122C77.3598 330.16 82.5122 323.502 82.5122 323.502C82.5122 323.502 82.3661 325.619 78.6431 328.976C81.4171 328.612 84.9941 323.356 84.9941 323.356C84.9941 323.356 83.6801 327.298 80.5409 330.071C83.2646 329.788 87.6214 323.064 87.6214 323.064C87.6214 323.064 85.9428 327.735 82.5122 330.436C86.3081 331.276 91.7828 325.619 91.7828 325.619C91.7828 325.619 89.6294 329.634 86.8187 331.276C89.9579 332.48 94.2647 327.516 94.2647 327.516C94.2647 327.516 89.9579 334.159 83.0963 333.867C80.8449 333.772 74.0349 327.037 59.4448 327.59C40.1737 328.32 36.086 336.495 25.7932 342.043Z" fill="#373535"/>
</g>
</g>
<path d="M26.2389 341.217C37.1156 330.341 45.8021 326.983 53.6859 325.45C54.7295 325.247 54.9267 322.968 54.9267 322.968C54.9267 322.968 55.0724 324.647 55.8029 324.866C56.5328 325.085 57.4815 322.238 57.4815 322.238C57.4815 322.238 56.6056 324.793 57.4815 324.939C58.3577 325.085 59.9634 322.457 59.9634 322.457C59.9634 322.457 59.3068 324.72 59.7442 324.866C60.1823 325.012 62.3722 321.581 62.3722 321.581C62.3722 321.581 61.0582 323.844 62.2993 324.063C63.5401 324.282 65.3512 322.519 65.3512 322.519C65.3512 322.519 63.9276 324.132 64.562 324.355C67.2631 325.304 69.4481 321.794 69.4481 321.794C69.4481 321.794 68.9417 323.333 67.6284 325.012C70.4749 325.742 72.5893 321.453 72.5893 321.453L70.4749 325.742C71.57 326.326 75.9496 321.29 75.9496 321.29C75.9496 321.29 73.6873 325.231 72.3733 326.034C73.1031 326.618 75.7311 324.282 75.7311 324.282C75.7311 324.282 73.6141 326.91 74.4171 327.056C75.585 328.005 79.8916 322.165 79.8916 322.165C79.8916 322.165 78.2123 325.596 75.7311 328.297C77.8055 329.335 82.9579 322.676 82.9579 322.676C82.9579 322.676 82.8119 324.793 79.0889 328.151C81.8628 327.786 85.4398 322.53 85.4398 322.53C85.4398 322.53 84.1259 326.472 80.9866 329.246C83.7103 328.963 88.0671 322.238 88.0671 322.238C88.0671 322.238 86.3886 326.91 82.9579 329.611C86.7538 330.45 92.2286 324.793 92.2286 324.793C92.2286 324.793 90.0752 328.808 87.2644 330.45C90.4037 331.655 94.7105 326.691 94.7105 326.691C94.7105 326.691 90.4037 333.334 83.5414 333.042C81.2906 332.946 74.4806 326.211 59.8902 326.764C40.6194 327.494 36.5315 335.669 26.2389 341.217Z" fill="#373535"/>
</g>
<mask id="mask11_27_390" style="mask-type:luminance" maskUnits="userSpaceOnUse" x="12" y="300" width="199" height="257">
<path d="M12.7684 300.899H210.058V556.215H12.7684V300.899Z" fill="white"/>
</mask>
<g mask="url(#mask11_27_390)">
<mask id="mask12_27_390" style="mask-type:luminance" maskUnits="userSpaceOnUse" x="25" y="334" width="65" height="25">
<path d="M25.5083 334.218H89.7822V358.015H25.5083V334.218Z" fill="white"/>
</mask>
<g mask="url(#mask12_27_390)">
<g opacity="0.350006">
<path d="M25.5083 343.232C31.2568 346.116 36.513 342.795 43.1373 344.661C48.1737 346.081 54.3057 347.831 62.627 346.627C70.9486 345.423 78.0662 341.809 81.4611 335.349C82.5194 332.466 86.8259 336.006 86.8259 336.006C86.8259 336.006 83.6873 334.692 83.7605 335.312C83.8334 335.933 88.4687 338.086 88.4687 338.086C88.4687 338.086 84.2711 336.772 84.5268 337.758C84.7824 338.743 89.782 342.685 89.782 342.685C89.782 342.685 84.1251 338.378 83.6509 338.962C83.1761 339.546 86.0596 341.919 86.0596 341.919C86.0596 341.919 81.2783 338.962 79.5991 339.834C78.3915 340.46 84.5632 344.51 84.5632 344.51C84.5632 344.51 80.5481 341.444 79.5991 342.247C78.6503 343.05 84.1251 349.62 84.1251 349.62C84.1251 349.62 77.9198 342.904 77.2999 343.232C76.6791 343.561 79.0149 346.773 79.0149 346.773C79.0149 346.773 75.9492 343.415 75.1101 343.999C74.2706 344.583 79.4898 353.306 79.4898 353.306C79.4898 353.306 73.8325 344.364 71.4967 345.86C75.1649 353.908 73.7961 355.058 73.7961 355.058C73.7961 355.058 73.328 346.847 68.7591 347.065C66.4597 347.174 69.8539 353.196 69.8539 353.196C69.8539 353.196 66.7298 347.696 64.6493 347.806C68.4838 355.063 67.117 358.014 67.117 358.014C67.117 358.014 67.7511 351.816 62.5503 348.367C64.5209 350.119 61.3137 358.014 61.3137 358.014C61.3137 358.014 64.1351 346.38 59.2328 348.598C58.4582 348.948 59.178 354.401 59.178 354.401C59.178 354.401 58.1925 348.159 56.7148 348.488C55.8531 348.679 51.2397 357.138 51.2397 357.138C51.2397 357.138 55.0175 347.995 53.868 348.379C53.0305 348.658 51.4589 352.43 51.4589 352.43C51.4589 352.43 52.2252 348.707 51.4589 348.488C50.6927 348.269 46.4219 352.43 46.4219 352.43C46.4219 352.43 49.5976 348.707 49.0499 347.941C48.2201 346.779 47.2475 346.725 46.0934 347.174C44.4142 347.829 42.1518 350.897 42.1518 350.897C42.1518 350.897 44.4071 347.79 44.0129 346.627C43.3801 344.757 36.8959 350.24 36.8959 350.24C36.8959 350.24 40.7283 346.627 39.8524 345.86C38.9765 345.094 34.2203 345.331 32.7351 345.327C28.3555 345.313 26.8377 344.286 25.5083 343.232Z" fill="#373535"/>
</g>
</g>
<path d="M25.2895 342.576C31.038 345.459 36.2938 342.138 42.9182 344.005C47.9545 345.424 54.0869 347.174 62.4085 345.97C70.7301 344.765 77.8471 341.152 81.2419 334.692C82.3003 331.809 86.6068 335.349 86.6068 335.349C86.6068 335.349 83.4682 334.035 83.5414 334.656C83.6142 335.276 88.2495 337.429 88.2495 337.429C88.2495 337.429 84.052 336.116 84.3076 337.101C84.5633 338.086 89.5635 342.028 89.5635 342.028C89.5635 342.028 83.906 337.721 83.4318 338.305C82.9576 338.889 85.8408 341.262 85.8408 341.262C85.8408 341.262 81.0591 338.305 79.3802 339.177C78.1723 339.804 84.3441 343.853 84.3441 343.853C84.3441 343.853 80.329 340.787 79.3802 341.59C78.4312 342.393 83.9066 348.963 83.9066 348.963C83.9066 348.963 77.701 342.247 77.0808 342.576C76.4606 342.904 78.7964 346.116 78.7964 346.116C78.7964 346.116 75.7301 342.758 74.8909 343.342C74.0515 343.926 79.2706 352.649 79.2706 352.649C79.2706 352.649 73.6134 343.707 71.2775 345.204C74.9458 353.251 73.577 354.401 73.577 354.401C73.577 354.401 73.1089 346.191 68.54 346.408C66.2405 346.518 69.6347 352.54 69.6347 352.54C69.6347 352.54 66.5107 347.039 64.4304 347.149C68.2653 354.406 66.8978 357.357 66.8978 357.357C66.8978 357.357 67.5319 351.159 62.3312 347.71C64.3018 349.462 61.0946 357.357 61.0946 357.357C61.0946 357.357 63.9166 345.723 59.0143 347.941C58.2397 348.291 58.9595 353.744 58.9595 353.744C58.9595 353.744 57.9734 347.503 56.496 347.831C55.634 348.023 51.0206 356.482 51.0206 356.482C51.0206 356.482 54.7984 347.339 53.6488 347.722C52.8113 348.001 51.2398 351.773 51.2398 351.773C51.2398 351.773 52.0064 348.05 51.2398 347.831C50.4735 347.613 46.2031 351.773 46.2031 351.773C46.2031 351.773 49.3788 348.05 48.8307 347.284C48.001 346.122 47.0284 346.068 45.8746 346.518C44.1951 347.172 41.9327 350.24 41.9327 350.24C41.9327 350.24 44.188 347.133 43.7941 345.97C43.1609 344.1 36.6771 349.583 36.6771 349.583C36.6771 349.583 40.5094 345.97 39.6332 345.204C38.7574 344.437 34.0012 344.674 32.516 344.67C28.1363 344.656 26.6189 343.629 25.2895 342.576Z" fill="#373535"/>
</g>
</g>
<line x1="174.058" y1="277.024" x2="116.717" y2="317.174" stroke="url(#paint6_linear_27_390)" stroke-width="2.5"/>
<circle cx="60" cy="60" r="58.75" stroke="url(#paint7_linear_27_390)" stroke-width="2.5" stroke-linecap="round"/>
<path d="M59.4189 25.0319C58.7851 25.064 58.1641 25.222 57.5924 25.4966L32.6677 37.4716C32.0226 37.7813 31.4558 38.2321 31.0093 38.7903C30.5629 39.3486 30.2483 39.9999 30.0889 40.6961L23.9398 67.5948C23.7978 68.2146 23.7819 68.8564 23.8931 69.4824C24.0042 70.1084 24.2402 70.7058 24.5869 71.2392C24.671 71.3696 24.7614 71.4958 24.8579 71.6174L42.1097 93.1858C42.5563 93.7439 43.1232 94.1945 43.7683 94.5041C44.4134 94.8137 45.1202 94.9745 45.8361 94.9743L73.5022 94.9679C74.2179 94.9684 74.9245 94.8082 75.5696 94.4991C76.2147 94.1901 76.7818 93.7401 77.2286 93.1826L94.4741 71.611C94.9209 71.0526 95.2357 70.401 95.3952 69.7046C95.5547 69.0082 95.5548 68.2848 95.3953 67.5884L89.2367 40.6897C89.0773 39.9935 88.7627 39.3422 88.3163 38.7839C87.8698 38.2257 87.303 37.7749 86.6579 37.4651L61.73 25.4966C61.0108 25.1511 60.2162 24.9913 59.4189 25.0319Z" fill="#326CE5"/>
<path d="M59.6659 34.1859C58.842 34.1859 58.174 34.9321 58.1741 35.8526C58.1741 35.8667 58.1769 35.8802 58.1772 35.8943C58.176 36.0193 58.17 36.17 58.1741 36.2789C58.1937 36.8098 58.3088 37.2161 58.3781 37.7053C58.5036 38.7521 58.6087 39.6199 58.5438 40.4265C58.4807 40.7307 58.2579 41.0089 58.0593 41.2022L58.0242 41.8369C57.129 41.9114 56.2277 42.048 55.3274 42.2535C51.4538 43.1379 48.1186 45.1443 45.5795 47.8532C45.4147 47.7401 45.1264 47.5322 45.0407 47.4685C44.7744 47.5047 44.5052 47.5873 44.1545 47.382C43.4869 46.9301 42.8789 46.3064 42.1431 45.555C41.806 45.1956 41.5618 44.8533 41.1613 44.5069C41.0703 44.4282 40.9315 44.3218 40.8298 44.2408C40.5166 43.9898 40.1473 43.8589 39.7906 43.8466C39.332 43.8308 38.8905 44.0111 38.6016 44.3754C38.0879 45.0232 38.2524 46.0133 38.9682 46.5871C38.9754 46.5929 38.9832 46.5974 38.9905 46.6031C39.0888 46.6833 39.2093 46.786 39.2997 46.8531C39.7247 47.1687 40.113 47.3302 40.5365 47.5807C41.4288 48.1348 42.1684 48.5942 42.7551 49.1481C42.9843 49.3937 43.0243 49.8264 43.0548 50.0135L43.5329 50.443C40.9733 54.3164 39.7886 59.1008 40.4887 63.9757L39.8639 64.1584C39.6992 64.3723 39.4665 64.7087 39.2232 64.8091C38.4556 65.0522 37.5917 65.1415 36.5487 65.2514C36.059 65.2924 35.6365 65.268 35.1174 65.3668C35.0032 65.3886 34.844 65.4303 34.7189 65.4598C34.7146 65.4607 34.7105 65.462 34.7062 65.463C34.6994 65.4646 34.6904 65.4679 34.6839 65.4694C33.8046 65.683 33.2397 66.4957 33.4216 67.2964C33.6034 68.0973 34.4623 68.5843 35.3469 68.3926C35.3533 68.3911 35.3626 68.3909 35.3692 68.3894C35.3792 68.3871 35.388 68.3822 35.3979 68.3798C35.5212 68.3526 35.6758 68.3223 35.7836 68.2933C36.294 68.1559 36.6636 67.954 37.1225 67.7772C38.1096 67.4212 38.9271 67.1238 39.7236 67.0079C40.0563 66.9817 40.4068 67.2143 40.5811 67.3124L41.2314 67.2003C42.7279 71.8654 45.864 75.6361 49.835 78.0021L49.5641 78.6559C49.6617 78.9098 49.7695 79.2534 49.6967 79.5041C49.4071 80.2591 48.9112 81.0561 48.3464 81.9446C48.0729 82.355 47.793 82.6736 47.5463 83.1433C47.4872 83.2557 47.412 83.4284 47.355 83.5472C46.9716 84.3721 47.2528 85.3222 47.9894 85.6787C48.7305 86.0375 49.6505 85.6591 50.0486 84.8325C50.0492 84.8313 50.0512 84.8305 50.0518 84.8293C50.0522 84.8284 50.0514 84.827 50.0518 84.8261C50.1085 84.7089 50.1888 84.5549 50.2367 84.4447C50.448 83.9578 50.5184 83.5405 50.667 83.0696C51.0617 82.0726 51.2786 81.0265 51.822 80.3747C51.9708 80.1962 52.2134 80.1276 52.4649 80.0599L52.8028 79.4444C56.2647 80.7806 60.1398 81.1391 64.0107 80.2554C64.8938 80.0538 65.7463 79.7928 66.5705 79.4797C66.6654 79.6491 66.8419 79.9747 66.8892 80.0567C67.1448 80.1403 67.4238 80.1834 67.6511 80.5214C68.0576 81.2198 68.3356 82.046 68.6743 83.044C68.823 83.5149 68.8965 83.9322 69.1079 84.419C69.1561 84.53 69.236 84.6862 69.2928 84.8037C69.6901 85.6329 70.6129 86.0126 71.3552 85.6531C72.0916 85.2963 72.3732 84.3464 71.9896 83.5216C71.9325 83.4028 71.8542 83.2301 71.7951 83.1177C71.5483 82.648 71.2685 82.3326 70.995 81.9221C70.4302 81.0337 69.9617 80.2956 69.6721 79.5406C69.551 79.1512 69.6925 78.909 69.7868 78.6559C69.7304 78.5908 69.6095 78.2231 69.5382 78.0501C73.6651 75.6 76.7091 71.6887 78.1386 67.1714C78.3317 67.2019 78.6672 67.2616 78.7762 67.2836C79.0005 67.1348 79.2068 66.9407 79.6114 66.9727C80.4079 67.0885 81.2254 67.386 82.2125 67.742C82.6714 67.9187 83.041 68.1238 83.5514 68.2612C83.6592 68.2902 83.8138 68.3173 83.9371 68.3446C83.947 68.347 83.9558 68.3519 83.9658 68.3542C83.9724 68.3557 83.9817 68.3559 83.9881 68.3574C84.8727 68.5489 85.7318 68.0621 85.9134 67.2612C86.0951 66.4604 85.5305 65.6475 84.6511 65.4341C84.5232 65.4049 84.3418 65.3552 84.2176 65.3316C83.6985 65.2327 83.276 65.2571 82.7863 65.2162C81.7433 65.1063 80.8794 65.0169 80.1118 64.7739C79.7988 64.6518 79.5762 64.2773 79.4679 64.1232L78.8654 63.9469C79.1778 61.6745 79.0936 59.3096 78.553 56.9434C78.0075 54.5551 77.0433 52.3707 75.7574 50.4462C75.912 50.305 76.2038 50.0451 76.2866 49.9687C76.3108 49.6995 76.29 49.4173 76.5671 49.1193C77.1538 48.5653 77.8935 48.106 78.7857 47.5519C79.2092 47.3014 79.6007 47.1399 80.0257 46.8243C80.1219 46.7529 80.2531 46.6399 80.3541 46.5582C81.0697 45.9842 81.2345 44.9942 80.7207 44.3466C80.2069 43.699 79.2113 43.638 78.4957 44.212C78.3938 44.2931 78.2556 44.3989 78.1641 44.478C77.7636 44.8245 77.5162 45.1667 77.1791 45.5261C76.4434 46.2776 75.8353 46.9044 75.1677 47.3564C74.8784 47.5257 74.4547 47.4671 74.2624 47.4557L73.695 47.8628C70.4594 44.4513 66.0542 42.2702 61.3108 41.8465C61.2975 41.6466 61.2801 41.2853 61.2757 41.1766C61.0815 40.9897 60.8469 40.8302 60.788 40.4265C60.7231 39.6199 60.8314 38.7521 60.9569 37.7053C61.0262 37.2161 61.1413 36.8098 61.1609 36.2789C61.1654 36.1582 61.1582 35.9831 61.1578 35.8526C61.1577 34.9321 60.4898 34.1858 59.6659 34.1859ZM57.7979 45.821L57.3548 53.69L57.3229 53.706C57.2932 54.41 56.717 54.9721 56.0096 54.9721C55.7198 54.9721 55.4524 54.8785 55.235 54.7189L55.2223 54.7253L48.8054 50.1514C50.7776 48.2014 53.3001 46.7604 56.2073 46.0967C56.7383 45.9754 57.2691 45.8855 57.7979 45.821ZM61.5371 45.821C64.9312 46.2408 68.0701 47.7861 70.4754 50.1546L64.1 54.6997L64.0777 54.69C63.5118 55.1056 62.7145 55.0025 62.2735 54.4464C62.0928 54.2186 61.998 53.9508 61.9866 53.6804L61.9802 53.6772L61.5371 45.821ZM46.4784 53.0906L52.3374 58.3601L52.331 58.3921C52.8598 58.8544 52.9378 59.6566 52.4968 60.2127C52.3161 60.4405 52.0742 60.5933 51.8146 60.6647L51.8082 60.6903L44.298 62.8699C43.9157 59.3554 44.7395 55.939 46.4784 53.0906ZM72.812 53.0938C73.6825 54.5126 74.3417 56.0972 74.7342 57.8152C75.1219 59.5125 75.2192 61.2068 75.0593 62.8443L67.5108 60.6583L67.5045 60.6262C66.8285 60.4405 66.4131 59.7491 66.5705 59.0556C66.6349 58.7715 66.7849 58.5312 66.9881 58.3537L66.9849 58.3376L72.812 53.0938ZM58.4641 58.7672H60.8645L62.3563 60.6422L61.8208 62.9821L59.6659 64.0238L57.5046 62.9789L56.9691 60.639L58.4641 58.7672ZM66.1593 65.1841C66.2613 65.1789 66.3628 65.1882 66.4621 65.2066L66.4748 65.1905L74.2433 66.5111C73.1064 69.7229 70.9308 72.5053 68.0241 74.3673L65.0085 67.0432L65.0181 67.0304C64.741 66.3832 65.0183 65.6242 65.6556 65.3155C65.8188 65.2365 65.9893 65.1928 66.1593 65.1841ZM53.112 65.2162C53.7048 65.2245 54.2366 65.6383 54.3743 66.2451C54.4388 66.5291 54.4074 66.8106 54.301 67.0592L54.3233 67.0881L51.3396 74.3384C48.55 72.5385 46.3281 69.8434 45.1395 66.5368L52.841 65.2226L52.8538 65.2386C52.9399 65.2227 53.0273 65.215 53.112 65.2162ZM59.6181 68.3926C59.8246 68.385 60.0341 68.4276 60.2333 68.524C60.4944 68.6505 60.6961 68.8495 60.823 69.0882H60.8517L64.6483 75.9859C64.1556 76.152 63.649 76.294 63.1309 76.4122C60.2274 77.0751 57.333 76.8743 54.7122 75.9763L58.4992 69.0914H58.5056C58.7328 68.6642 59.1638 68.4094 59.6181 68.3926Z" fill="white" stroke="white" stroke-width="0.25"/>
<line x1="165.624" y1="141.174" x2="108.283" y2="101.024" stroke="url(#paint8_linear_27_390)" stroke-width="2.5"/>
</g>
<defs>
<linearGradient id="paint0_linear_27_390" x1="250" y1="181.5" x2="250" y2="354" gradientUnits="userSpaceOnUse">
<stop stop-color="#EAF1FA"/>
<stop offset="1" stop-color="#578FDB"/>
</linearGradient>
<linearGradient id="paint1_linear_27_390" x1="440" y1="48.9" x2="440" y2="152.4" gradientUnits="userSpaceOnUse">
<stop stop-color="#EAF1FA"/>
<stop offset="1" stop-color="#578FDB"/>
</linearGradient>
<linearGradient id="paint2_linear_27_390" x1="236.422" y1="209.826" x2="391.341" y2="100" gradientUnits="userSpaceOnUse">
<stop stop-color="#578FDB"/>
<stop offset="1" stop-color="#EAF1FA"/>
</linearGradient>
<linearGradient id="paint3_linear_27_390" x1="440" y1="324.9" x2="440" y2="428.4" gradientUnits="userSpaceOnUse">
<stop stop-color="#EAF1FA"/>
<stop offset="1" stop-color="#578FDB"/>
</linearGradient>
<linearGradient id="paint4_linear_27_390" x1="222.152" y1="208.137" x2="378.341" y2="316.15" gradientUnits="userSpaceOnUse">
<stop stop-color="#578FDB"/>
<stop offset="1" stop-color="#EAF1FA"/>
</linearGradient>
<linearGradient id="paint5_linear_27_390" x1="60" y1="332.9" x2="60" y2="436.4" gradientUnits="userSpaceOnUse">
<stop stop-color="#EAF1FA"/>
<stop offset="1" stop-color="#578FDB"/>
</linearGradient>
<linearGradient id="paint6_linear_27_390" x1="270.919" y1="206.324" x2="116" y2="316.15" gradientUnits="userSpaceOnUse">
<stop stop-color="#578FDB"/>
<stop offset="1" stop-color="#EAF1FA"/>
</linearGradient>
<linearGradient id="paint7_linear_27_390" x1="60" y1="48.9" x2="60" y2="152.4" gradientUnits="userSpaceOnUse">
<stop stop-color="#EAF1FA"/>
<stop offset="1" stop-color="#578FDB"/>
</linearGradient>
<linearGradient id="paint8_linear_27_390" x1="265.189" y1="208.013" x2="109" y2="100" gradientUnits="userSpaceOnUse">
<stop stop-color="#578FDB"/>
<stop offset="1" stop-color="#EAF1FA"/>
</linearGradient>
<clipPath id="clip0_27_390">
<rect width="500" height="404" fill="white"/>
</clipPath>
<clipPath id="clip1_27_390">
<rect width="120" height="120" fill="white" transform="translate(190 140)"/>
</clipPath>
<clipPath id="clip2_27_390">
<rect width="44.352" height="72" fill="white" transform="translate(418.4 24)"/>
</clipPath>
<clipPath id="clip3_27_390">
<rect width="72" height="48.3493" fill="white" transform="translate(24 320)"/>
</clipPath>
</defs>
</svg>
