<svg width="1277" height="697" viewBox="0 0 1277 697" fill="none" xmlns="http://www.w3.org/2000/svg">
<g filter="url(#filter0_d_131_29)">
<path d="M488 214C488 205.163 495.163 198 504 198H772C780.837 198 788 205.163 788 214V482C788 490.837 780.837 498 772 498H504C495.163 498 488 490.837 488 482V214Z" fill="#EFEFF0"/>
<path d="M746.932 335.986L703.027 260.014C699.226 253.417 689.877 248 682.232 248H594.508C586.906 248 577.513 253.417 573.713 260.014L529.851 335.986C526.05 342.583 526.05 353.374 529.851 359.97L573.713 435.986C577.513 442.583 586.862 448 594.508 448H682.275C689.877 448 699.226 442.583 703.07 435.986L746.932 359.97C750.733 353.374 750.733 342.583 746.932 335.986ZM628.889 290.027C628.889 285.047 632.952 280.984 637.933 280.984C642.913 280.984 646.976 285.047 646.976 290.027V344.068C646.976 349.048 642.913 353.111 637.933 353.111C632.952 353.111 628.889 349.048 628.889 344.068V290.027ZM637.933 405.405C604.119 405.405 576.596 377.882 576.596 344.068C576.64 324.671 585.814 306.453 601.367 294.833C604.949 292.168 609.973 292.91 612.638 296.493C615.303 300.075 614.56 305.099 610.978 307.764C590.925 322.661 586.731 351.014 601.629 371.067C616.526 391.119 644.879 395.313 664.931 380.416C676.421 371.897 683.193 358.398 683.193 344.068C683.149 329.695 676.334 316.196 664.757 307.633C661.174 305.012 660.432 299.944 663.053 296.362C665.674 292.779 670.742 292.037 674.324 294.658C690.008 306.235 699.226 324.584 699.27 344.068C699.27 377.926 671.747 405.405 637.933 405.405Z" fill="#19191A"/>
</g>
<g filter="url(#filter1_d_131_29)">
<path d="M248 146C248 137.163 255.163 130 264 130H432C440.837 130 448 137.163 448 146V314C448 322.837 440.837 330 432 330H264C255.163 330 248 322.837 248 314V146Z" fill="#EFEFF0"/>
<path d="M413.941 193.794C412.294 183.706 407.912 174.853 401.029 167.971C394.147 161.088 385.353 156.735 375.235 155.088C367.147 149.294 357.853 146 348 146C338.147 146 328.853 149.294 320.765 155.088C310.647 156.735 301.824 161.088 294.971 167.971C287.971 174.941 283.735 183.853 282.118 193.706C276.294 201.824 273 211.118 273 221C273 230.882 276.294 240.176 282.118 248.294C283.735 258.147 287.971 267.059 294.971 274.029C301.824 280.882 310.647 285.265 320.765 286.912C328.882 292.706 338.147 296 348 296C357.853 296 367.118 292.706 375.235 286.912C385.353 285.265 394.176 280.882 401.029 274.029C408.029 267.029 412.235 258.118 413.882 248.294C419.706 240.176 423 230.882 423 221C423 211.118 419.706 201.882 413.941 193.794ZM412.118 211.941C411.882 213.706 411.559 215.441 411.176 217.206C409.059 210.618 406.147 204.324 402.529 198.441C400.912 191.735 398.529 185.235 395.353 179.088C402.088 183.441 407.765 188.676 412.029 194.559C412.912 200.294 412.941 206.176 412.118 211.941ZM403.794 204.706C406.529 209.912 408.676 215.382 410.235 221.059C408.676 226.735 406.5 232.206 403.765 237.412C405.618 226.588 405.647 215.529 403.794 204.706ZM324.588 246.324C326.5 245 328.618 244.029 330.853 243.441C340.324 241.235 344.588 240.529 350.353 238.029C361.176 233.353 372.353 222.353 375.235 210.382C370.5 221.794 357.735 231.029 346.441 234.382C338.735 236.676 322.971 238.382 322.882 238.382L322.471 238.029C313.471 232.912 314.529 212.794 331.824 207.412C339.382 205.059 348.265 207.206 356.382 205.824C365.029 204.353 375.324 198.618 379.882 190.529C383.5 204.176 387.559 225.382 377.029 237.647C364 252.765 335.294 239.529 324.588 246.324ZM364.412 276.765C359.206 279.529 353.676 281.706 348 283.265C342.294 281.706 336.794 279.529 331.588 276.765C342.441 278.618 353.559 278.618 364.412 276.765ZM307.588 261.412C311.441 265.265 315.618 268.794 320.029 271.941C314.441 270.206 309.088 267.882 304 264.971C301.088 259.882 298.765 254.471 297.029 248.882C300.176 253.382 303.735 257.559 307.588 261.412ZM297.029 193.088C298.765 187.5 301.118 182.088 304 177C309.088 174.118 314.441 171.765 320.029 170.029C315.588 173.206 311.441 176.706 307.588 180.559C303.735 184.441 300.176 188.618 297.029 193.088ZM316.853 247.882C314.353 247.941 312.294 245.971 312.235 243.471C312.176 240.971 314.147 238.912 316.647 238.853C319.147 238.794 321.206 240.765 321.265 243.265V243.294C321.294 245.794 319.324 247.824 316.853 247.882ZM331.588 165.235C336.794 162.471 342.324 160.294 348 158.735C353.706 160.294 359.206 162.471 364.412 165.235C353.559 163.382 342.441 163.382 331.588 165.235ZM388.412 261.412C392.265 257.559 395.794 253.382 398.971 248.941C397.235 254.529 394.882 259.912 392 264.971C386.912 267.853 381.559 270.176 375.971 271.941C380.412 268.794 384.559 265.265 388.412 261.412ZM388.412 180.588C384.559 176.735 380.412 173.206 375.971 170.059C381.559 171.794 386.912 174.147 392 177.029C394.882 182.118 397.235 187.5 398.971 193.118C395.824 188.618 392.265 184.441 388.412 180.588ZM399.618 169.382C405.324 175.059 409.206 182.206 411.176 190.294C406.412 184.647 400.412 179.647 393.412 175.588C389.353 168.588 384.353 162.588 378.706 157.824C386.853 159.794 393.941 163.676 399.618 169.382ZM389.941 173.647C383.824 170.5 377.353 168.118 370.647 166.529C364.765 162.882 358.441 159.941 351.853 157.824C356.412 156.824 361.059 156.324 365.735 156.294C368.676 156.294 371.588 156.529 374.471 156.971C380.382 161.235 385.588 166.912 389.941 173.647ZM348 148C356.118 148 363.824 150.353 370.765 154.529C369.118 154.382 367.441 154.324 365.735 154.324C359.735 154.353 353.794 155.147 348 156.706C342.206 155.147 336.265 154.353 330.265 154.324C328.559 154.324 326.882 154.382 325.235 154.529C332.176 150.324 339.882 148 348 148ZM321.529 156.971C324.412 156.529 327.353 156.294 330.265 156.294C334.941 156.324 339.588 156.824 344.147 157.824C337.559 159.941 331.235 162.853 325.353 166.529C318.676 168.118 312.176 170.529 306.059 173.647C310.412 166.912 315.618 161.235 321.529 156.971ZM296.382 169.382C302.059 163.706 309.176 159.794 317.294 157.824C311.647 162.588 306.647 168.588 302.588 175.588C295.618 179.647 289.647 184.588 284.882 190.235C286.824 182.294 290.588 175.147 296.382 169.382ZM284 194.5C288.294 188.618 293.941 183.412 300.647 179.088C297.5 185.235 295.118 191.735 293.5 198.441C289.882 204.324 286.971 210.618 284.853 217.206C283.176 209.353 282.853 201.676 284 194.5ZM292.235 237.294C289.5 232.118 287.353 226.647 285.794 221C287.353 215.353 289.5 209.882 292.235 204.706C290.382 215.5 290.382 226.5 292.235 237.294ZM281.588 243.882C277.353 236.912 275 229.176 275 221C275 212.824 277.382 205.088 281.588 198.118C280.971 205.471 281.706 213.206 283.765 221C281.676 228.794 280.941 236.529 281.588 243.882ZM284.853 224.824C286.971 231.382 289.882 237.676 293.5 243.559C295.118 250.265 297.5 256.765 300.647 262.912C293.941 258.588 288.294 253.353 284 247.5C282.853 240.324 283.176 232.647 284.853 224.824ZM296.382 272.618C290.618 266.853 286.824 259.706 284.882 251.765C289.618 257.382 295.618 262.353 302.588 266.412C306.647 273.382 311.647 279.412 317.294 284.176C309.147 282.206 302.059 278.324 296.382 272.618ZM306.088 268.353C312.206 271.5 318.676 273.882 325.353 275.471C331.235 279.118 337.559 282.059 344.147 284.176C339.588 285.176 334.941 285.676 330.265 285.676C327.324 285.676 324.412 285.441 321.529 285C315.618 280.735 310.412 275.088 306.088 268.353ZM348 294C339.882 294 332.176 291.647 325.235 287.471C326.882 287.618 328.559 287.676 330.265 287.676C336.265 287.647 342.206 286.853 348 285.294C353.794 286.853 359.735 287.647 365.735 287.676C367.441 287.676 369.118 287.618 370.765 287.471C363.824 291.676 356.118 294 348 294ZM374.471 285.029C371.588 285.471 368.647 285.706 365.735 285.706C361.059 285.676 356.412 285.176 351.853 284.206C358.441 282.088 364.765 279.147 370.647 275.5C377.324 273.912 383.824 271.5 389.941 268.382C385.588 275.088 380.382 280.735 374.471 285.029ZM399.618 272.618C393.941 278.294 386.824 282.206 378.706 284.176C384.353 279.412 389.353 273.412 393.412 266.412C400.382 262.353 406.353 257.412 411.118 251.765C409.206 259.706 405.382 266.853 399.618 272.618ZM412 247.5C407.706 253.382 402.059 258.588 395.353 262.912C398.5 256.794 400.882 250.324 402.5 243.618C406.118 237.735 409.029 231.471 411.176 224.882C412.824 232.676 413.147 240.353 412 247.5ZM412.265 221.088C413.029 218.176 413.647 215.206 414.059 212.235C414.706 207.618 414.853 202.912 414.471 198.265C418.647 205.206 421 212.912 421 221.029C421 229.147 418.618 236.941 414.412 243.912C415.029 236.559 414.324 228.824 412.265 221.088Z" fill="#19191A"/>
</g>
<g filter="url(#filter2_d_131_29)">
<path d="M248 381C248 372.163 255.163 365 264 365H432C440.837 365 448 372.163 448 381V549C448 557.837 440.837 565 432 565H264C255.163 565 248 557.837 248 549V381Z" fill="#EFEFF0"/>
<path d="M350.701 418.936C371.77 418.936 391.23 433.682 395.982 453.263L396.524 455.498L398.744 456.124C404.652 457.807 409.852 461.368 413.556 466.269C417.259 471.171 419.266 477.145 419.271 483.288C419.286 486.955 418.565 490.588 417.153 493.972C415.741 497.356 413.665 500.423 411.048 502.992C405.745 508.215 398.589 511.125 391.146 511.086H308.761C290.346 511.086 275.959 496.958 275.959 478.917C275.959 462.051 288.858 448.236 305.969 446.772L308.257 446.573L309.195 444.437C315.779 429.433 332.843 418.959 350.686 418.959M350.686 415.023C331.272 415 312.727 426.618 305.61 442.836C286.776 444.437 272 459.648 272 478.894C272 499.201 288.469 514.999 308.776 514.999H391.161C395.352 515.032 399.508 514.236 403.391 512.657C407.273 511.078 410.804 508.746 413.782 505.797C416.76 502.848 419.125 499.339 420.741 495.472C422.357 491.605 423.193 487.456 423.2 483.265C423.198 476.263 420.912 469.453 416.69 463.866C412.468 458.28 406.54 454.223 399.804 452.31C394.441 430.257 372.914 415 350.701 415L350.686 415.023Z" fill="#19191A"/>
<path d="M319.845 492.389C321.317 492.389 322.026 492.564 322.598 493.098C323.361 493.808 324.032 495.204 324.032 499.079C324.032 502.954 323.384 504.335 322.598 505.067C322.026 505.578 321.317 505.769 319.845 505.769H316.732C315.26 505.769 314.573 505.578 314.001 505.067C313.2 504.304 312.567 502.939 312.567 499.079C312.567 495.219 313.2 493.808 314.001 493.098C314.573 492.564 315.26 492.389 316.732 492.389H319.845ZM317.419 494.86C316.717 494.86 316.488 494.937 316.328 495.066C316.168 495.196 315.817 495.776 315.817 499.079C315.817 502.382 316.122 502.893 316.328 503.076C316.534 503.259 316.717 503.289 317.419 503.289H319.158C319.921 503.289 320.096 503.228 320.272 503.076C320.447 502.923 320.783 502.389 320.783 499.079C320.783 495.768 320.478 495.265 320.272 495.066C320.066 494.868 319.883 494.86 319.158 494.86H317.419Z" fill="#19191A"/>
<path d="M331.63 502.901V493.449L329.731 494.105L329.044 492.084L332.21 490.901H334.399V502.901H331.63Z" fill="#19191A"/>
<path d="M346.429 488.14C347.535 488.14 348.069 488.269 348.504 488.666C349.091 489.2 349.58 490.253 349.58 493.174C349.58 496.096 349.091 497.133 348.504 497.675C347.91 498.12 347.164 498.311 346.429 498.209H344.087C342.973 498.209 342.455 498.064 342.028 497.675C341.425 497.133 340.944 496.081 340.944 493.174C340.944 490.268 341.425 489.2 342.028 488.666C342.455 488.269 342.973 488.14 344.087 488.14H346.429ZM344.598 489.993C344.072 489.993 343.896 490.047 343.782 490.154C343.668 490.26 343.393 490.68 343.393 493.205C343.393 495.73 343.622 496.081 343.782 496.21C343.942 496.34 344.072 496.371 344.598 496.371H345.91C346.46 496.371 346.62 496.325 346.749 496.21C346.879 496.096 347.131 495.692 347.131 493.205C347.131 490.718 346.902 490.329 346.749 490.154C346.597 489.978 346.46 489.993 345.91 489.993H344.598Z" fill="#19191A"/>
<path d="M355.621 493.319V486.164L354.187 486.66L353.668 485.134L356.064 484.234H357.719V493.319H355.621Z" fill="#19191A"/>
<path d="M363.936 488.17V481.595L362.609 482.053L362.136 480.641L364.34 479.84H365.866V488.17H363.936Z" fill="#19191A"/>
<path d="M372.769 474.569C373.007 474.533 373.249 474.545 373.481 474.605C373.713 474.666 373.93 474.773 374.12 474.92C374.501 475.263 374.821 475.95 374.821 477.849C374.821 479.749 374.501 480.42 374.12 480.779C373.732 481.066 373.247 481.19 372.769 481.122H371.244C371.01 481.155 370.771 481.142 370.542 481.083C370.313 481.024 370.098 480.921 369.909 480.779C369.512 480.42 369.207 479.741 369.207 477.849C369.207 475.957 369.512 475.263 369.909 474.92C370.095 474.773 370.31 474.666 370.54 474.606C370.77 474.545 371.009 474.533 371.244 474.569H372.769ZM371.579 475.782C371.236 475.782 371.122 475.782 371.053 475.881C370.984 475.98 370.794 476.232 370.794 477.849C370.794 479.466 370.946 479.718 371.053 479.802C371.16 479.886 371.236 479.909 371.579 479.909H372.434C372.792 479.909 372.892 479.909 372.975 479.802C373.059 479.695 373.227 479.466 373.227 477.849C373.227 476.232 373.082 475.973 372.975 475.881C372.869 475.79 372.792 475.782 372.434 475.782H371.579Z" fill="#19191A"/>
<path d="M378.742 468.23C379.136 468.176 379.536 468.277 379.856 468.512C380.177 468.802 380.436 469.367 380.436 470.946C380.436 472.525 380.177 473.074 379.856 473.372C379.536 473.607 379.136 473.709 378.742 473.654H377.476C377.085 473.706 376.688 473.605 376.37 473.372C376.042 473.074 375.783 472.51 375.783 470.946C375.783 469.382 376.042 468.802 376.37 468.512C376.526 468.394 376.704 468.308 376.894 468.259C377.084 468.211 377.282 468.201 377.476 468.23H378.742ZM377.758 469.229C377.468 469.229 377.377 469.229 377.316 469.313C377.255 469.397 377.102 469.603 377.102 470.946C377.102 472.288 377.224 472.471 377.316 472.563C377.407 472.655 377.468 472.647 377.758 472.647H378.46C378.758 472.647 378.842 472.647 378.91 472.563C378.979 472.479 379.116 472.281 379.116 470.946C379.116 469.611 378.994 469.42 378.91 469.313C378.826 469.207 378.758 469.229 378.46 469.229H377.758Z" fill="#19191A"/>
<path d="M383.045 462.295C383.186 462.274 383.331 462.282 383.47 462.317C383.608 462.353 383.739 462.415 383.853 462.501C384.09 462.715 384.281 463.127 384.281 464.271C384.281 465.415 384.09 465.797 383.853 466.033C383.739 466.12 383.609 466.184 383.47 466.221C383.332 466.258 383.187 466.266 383.045 466.247H382.122C381.981 466.266 381.837 466.257 381.7 466.22C381.562 466.183 381.433 466.12 381.321 466.033C381.084 465.819 380.894 465.408 380.894 464.271C380.894 463.134 381.084 462.745 381.321 462.501C381.434 462.416 381.563 462.353 381.701 462.318C381.838 462.283 381.981 462.275 382.122 462.295H383.045ZM382.328 463.02C382.122 463.02 382.053 463.02 382.007 463.081C381.962 463.142 381.855 463.295 381.855 464.271C381.855 465.247 381.946 465.4 382.007 465.446C382.068 465.491 382.122 465.507 382.328 465.507H382.839C383.052 465.507 383.121 465.507 383.167 465.446C383.213 465.385 383.319 465.247 383.319 464.271C383.319 463.295 383.228 463.142 383.167 463.081C383.106 463.02 383.052 463.02 382.839 463.02H382.328Z" fill="#19191A"/>
<path d="M392.702 421.011C388.362 433.59 373.128 443.438 360.785 446.375C349.213 449.129 338.976 446.871 328.266 450.952C307.555 458.916 306.144 478.414 313.139 489.726C313.681 490.611 340.601 488.468 353.867 482.792C371.488 475.24 382.007 460.991 384.738 455.681C384.981 455.424 385.295 455.245 385.639 455.165C385.984 455.084 386.344 455.108 386.676 455.231C387.024 455.317 387.33 455.522 387.542 455.81C387.754 456.099 387.858 456.453 387.835 456.81C386.114 464.424 382.846 471.603 378.235 477.902C373.624 484.201 367.768 489.485 361.03 493.426C351.723 498.919 344.591 501.627 339.381 503.045C338.503 503.282 338.541 503.93 339.541 503.923C352.303 503.823 381.412 505.685 393.534 490.283C407.57 471.64 400.155 442.179 392.702 421.011Z" fill="#19191A"/>
</g>
<g filter="url(#filter3_d_131_29)">
<path d="M828 146C828 137.163 835.163 130 844 130H1012C1020.84 130 1028 137.163 1028 146V314C1028 322.837 1020.84 330 1012 330H844C835.163 330 828 322.837 828 314V146Z" fill="#EFEFF0"/>
<g clip-path="url(#clip0_131_29)">
<path d="M928.429 165.483C903.269 165.483 882.803 185.949 882.803 211.104V266.957C882.803 282.153 895.167 294.517 910.363 294.517C925.559 294.517 937.923 282.153 937.923 266.957C937.923 261.827 933.768 257.671 928.637 257.671C923.507 257.671 919.352 261.827 919.352 266.957C919.352 272.088 915.322 275.946 910.363 275.946C905.405 275.946 901.375 271.916 901.375 266.957V211.104C901.375 196.186 913.511 184.05 928.429 184.05C943.346 184.05 955.482 196.186 955.482 211.104V266.511C955.482 271.642 959.638 275.797 964.768 275.797C969.899 275.797 974.054 271.642 974.054 266.511V211.104C974.054 185.949 953.588 165.483 928.429 165.483Z" fill="#19191A"/>
<path d="M938.689 211.535C938.689 206.247 934.153 201.962 928.563 201.962C922.973 201.962 918.437 206.247 918.437 211.535C918.437 213.931 919.37 216.123 920.912 217.803L922.787 220.315L919.598 240.2V241.092C919.598 242.09 920.457 242.907 921.511 242.907H935.379C936.433 242.907 937.292 242.09 937.292 241.092V240.033L934.404 220.315L936.229 217.785C937.761 216.109 938.689 213.922 938.689 211.535Z" fill="#19191A"/>
</g>
</g>
<g filter="url(#filter4_d_131_29)">
<path d="M828 381C828 372.163 835.163 365 844 365H1012C1020.84 365 1028 372.163 1028 381V549C1028 557.837 1020.84 565 1012 565H844C835.163 565 828 557.837 828 549V381Z" fill="#EFEFF0"/>
<g clip-path="url(#clip1_131_29)">
<path d="M981.526 450.07C986.257 450.07 990.093 446.235 990.093 441.503C990.093 436.772 986.257 432.937 981.526 432.937C976.795 432.937 972.959 436.772 972.959 441.503C972.959 446.235 976.795 450.07 981.526 450.07Z" fill="#19191A"/>
<path d="M981.526 495.982C986.257 495.982 990.093 492.147 990.093 487.415C990.093 482.684 986.257 478.848 981.526 478.848C976.795 478.848 972.959 482.684 972.959 487.415C972.959 492.147 976.795 495.982 981.526 495.982Z" fill="#19191A"/>
<path d="M944.68 432.604V440.256C951.5 441.088 957.406 444.664 961.315 449.904L967.969 446.078C967.47 444.664 967.22 443.167 967.22 441.587C967.22 437.095 969.299 433.103 972.543 430.525C967.802 426.2 962.147 422.873 955.909 420.876C954.994 426.699 950.502 431.356 944.68 432.604Z" fill="#19191A"/>
<path d="M970.88 450.985L964.226 454.811C965.473 457.805 966.222 461.049 966.222 464.459C966.222 467.869 965.557 471.113 964.226 474.107L970.88 477.933C973.541 474.939 977.284 473.109 981.526 473.109C983.356 473.109 985.019 473.442 986.683 474.024C987.348 470.947 987.681 467.703 987.681 464.376C987.681 461.049 987.348 457.889 986.683 454.728C985.102 455.31 983.356 455.726 981.526 455.726C977.284 455.809 973.458 453.896 970.88 450.985Z" fill="#19191A"/>
<path d="M967.303 487.415C967.303 485.835 967.553 484.338 968.052 482.924L961.398 479.098C957.489 484.338 951.5 487.914 944.763 488.746V496.398C950.585 497.562 955.077 502.303 955.992 508.209C962.23 506.212 967.885 502.885 972.626 498.56C969.299 495.899 967.303 491.907 967.303 487.415Z" fill="#19191A"/>
<path d="M941.769 518.938C946.5 518.938 950.336 515.102 950.336 510.371C950.336 505.64 946.5 501.804 941.769 501.804C937.038 501.804 933.202 505.64 933.202 510.371C933.202 515.102 937.038 518.938 941.769 518.938Z" fill="#19191A"/>
<path d="M938.941 496.315V488.663C927.713 487.332 918.73 478.349 917.566 467.038C904.674 462.63 893.445 455.393 887.29 450.237C893.778 454.479 905.09 457.805 917.898 459.552C919.978 449.405 928.461 441.503 938.941 440.256V432.604C932.953 431.356 928.212 426.366 927.546 420.128C909.997 424.12 888.538 433.436 865 412.892C865 458.97 889.536 502.22 927.546 509.29C928.045 502.885 932.786 497.646 938.941 496.315Z" fill="#19191A"/>
<path d="M941.769 483.09C952.059 483.09 960.4 474.749 960.4 464.459C960.4 454.17 952.059 445.828 941.769 445.828C931.48 445.828 923.138 454.17 923.138 464.459C923.138 474.749 931.48 483.09 941.769 483.09Z" fill="#19191A"/>
<path d="M941.769 427.114C946.5 427.114 950.336 423.279 950.336 418.548C950.336 413.816 946.5 409.981 941.769 409.981C937.038 409.981 933.202 413.816 933.202 418.548C933.202 423.279 937.038 427.114 941.769 427.114Z" fill="#19191A"/>
</g>
</g>
<g filter="url(#filter5_d_131_29)">
<path d="M8 24C8 15.1634 15.1634 8 24 8H192C200.837 8 208 15.1634 208 24V192C208 200.837 200.837 208 192 208H24C15.1634 208 8 200.837 8 192V24Z" fill="#EFEFF0"/>
<path d="M108.292 43L52 75.5V140.5L108.292 173L164.583 140.5V75.5L108.292 43ZM108.292 49.1405L158.11 77.9015L144.778 85.8109L108.292 64.7447L72.2846 85.535L58.9527 77.6257L108.292 49.1405ZM136.956 109.9V124.986L123.889 132.529L110.824 124.986V109.9L123.889 102.356L136.956 109.9ZM92.6918 102.356L105.759 109.9V124.986L92.6918 132.529L79.627 124.986V109.9L92.6918 102.356ZM106.934 166.078L57.3174 137.431V79.7469L70.831 87.7636V129.629L106.978 150.498L106.934 166.078ZM95.2246 97.9365V82.8511L108.292 75.3074L121.356 82.8511V97.9365L108.292 105.48L95.2246 97.9365ZM159.266 137.431L109.592 166.111L109.638 150.478L145.752 129.629V88.324L159.266 80.3074V137.431Z" fill="#19191A"/>
<path d="M118.786 86.0494V96.4522L108.292 102.512L97.7969 96.4522V86.1479L108.373 92.341L118.786 86.0494Z" fill="#19191A"/>
<path d="M117.694 83.705L108.353 89.3486L98.7995 83.7553L108.292 78.2759L117.694 83.705Z" fill="#19191A"/>
<path d="M102.094 110.754L92.7529 116.398L83.2017 110.804L92.6917 105.325L102.094 110.754Z" fill="#19191A"/>
<path d="M103.186 113.101V123.501L92.6917 129.561L82.1992 123.501V113.199L92.7749 119.39L103.186 113.101Z" fill="#19191A"/>
<path d="M134.384 113.101V123.501L123.889 129.561L113.397 123.501V113.199L123.972 119.39L134.384 113.101Z" fill="#19191A"/>
<path d="M133.292 110.754L123.951 116.398L114.399 110.804L123.889 105.325L133.292 110.754Z" fill="#19191A"/>
</g>
<g filter="url(#filter6_d_131_29)">
<path d="M8 264C8 255.163 15.1634 248 24 248H192C200.837 248 208 255.163 208 264V432C208 440.837 200.837 448 192 448H24C15.1634 448 8 440.837 8 432V264Z" fill="#EFEFF0"/>
<g clip-path="url(#clip2_131_29)">
<path d="M107.948 373.654C82.3081 373.654 71.1401 371.543 56 368.016V407.202L56.7125 407.38C71.3182 410.943 82.3616 413.009 107.948 413.009C133.535 413.009 144.774 410.889 159.371 407.336L160.093 407.158V367.972C144.997 371.525 133.722 373.654 107.948 373.654Z" fill="#19191A"/>
<path d="M107.948 283C82.3616 283 71.3182 285.102 56.7125 288.629L56 288.807V330.201C71.1401 326.639 82.3081 324.564 107.948 324.564C133.589 324.564 144.997 326.693 160.093 330.255V288.851L159.371 288.673C144.774 285.12 133.669 283 107.948 283Z" fill="#19191A"/>
<path d="M160.093 332.499L159.371 332.321C144.774 328.768 133.669 326.639 107.948 326.639C82.228 326.639 71.3182 328.75 56.7125 332.268L56 332.446V365.772L56.7125 365.941C71.3182 369.503 82.3616 371.579 107.948 371.579C133.535 371.579 144.774 369.45 159.371 365.897L160.093 365.718V332.499Z" fill="#19191A"/>
</g>
</g>
<g filter="url(#filter7_d_131_29)">
<path d="M8 504C8 495.163 15.1634 488 24 488H192C200.837 488 208 495.163 208 504V672C208 680.837 200.837 688 192 688H24C15.1634 688 8 680.837 8 672V504Z" fill="#EFEFF0"/>
<path d="M45 607.262V616.888L107.592 653L170.192 616.888V607.262L107.592 643.375L45 607.262ZM45 588.004V597.629L107.592 633.742L170.192 597.629V588.004L107.592 624.117L45 588.004ZM107.592 523L45 559.112V578.371L107.592 614.508L170.192 578.396V559.112L107.592 523Z" fill="#19191A"/>
</g>
<g filter="url(#filter8_d_131_29)">
<path d="M1068 24C1068 15.1634 1075.16 8 1084 8H1252C1260.84 8 1268 15.1634 1268 24V192C1268 200.837 1260.84 208 1252 208H1084C1075.16 208 1068 200.837 1068 192V24Z" fill="#EFEFF0"/>
<g clip-path="url(#clip3_131_29)">
<path d="M1214.07 54.1943L1167.5 43L1121 54.1943V90.016H1145.69C1145.47 91.7313 1145.47 93.4672 1145.69 95.1826H1121V112.008C1121 150.637 1167.5 173.026 1167.5 173.026C1167.5 173.026 1214 150.637 1214 112.034V95.1998H1189.37C1189.6 93.4851 1189.6 91.7478 1189.37 90.0332H1214.07V54.1943ZM1167.5 109.434C1164.17 109.427 1160.92 108.434 1158.16 106.581C1155.4 104.728 1153.25 102.098 1151.98 99.023C1150.71 95.9479 1150.38 92.5659 1151.04 89.3042C1151.69 86.0426 1153.29 83.0478 1155.65 80.6981C1158 78.3484 1161 76.7493 1164.26 76.1028C1167.53 75.4564 1170.91 75.7916 1173.98 77.0661C1177.05 78.3406 1179.68 80.4973 1181.53 83.2635C1183.37 86.0298 1184.36 89.2815 1184.36 92.6079C1184.36 94.8204 1183.92 97.0112 1183.08 99.0548C1182.23 101.098 1180.99 102.955 1179.42 104.518C1177.85 106.081 1175.99 107.319 1173.95 108.163C1171.9 109.006 1169.71 109.438 1167.5 109.434Z" fill="#19191A"/>
<path d="M1167.5 84.6255C1166.52 84.6243 1165.57 84.952 1164.8 85.5559C1164.03 86.1598 1163.49 87.0048 1163.26 87.9551C1163.03 88.9053 1163.12 89.9054 1163.53 90.7946C1163.94 91.6838 1164.63 92.4104 1165.5 92.8576V93.9856L1166.78 95.2686V96.1297L1167.65 96.9908V97.8519L1166.89 98.6097L1167.7 99.9444V100.805L1166.84 101.83L1168.04 103.036L1169.38 101.701V92.9437C1170.29 92.5274 1171.02 91.8113 1171.47 90.9153C1171.91 90.0194 1172.03 88.9982 1171.81 88.023C1171.59 87.0478 1171.04 86.1779 1170.26 85.5593C1169.47 84.9407 1168.5 84.611 1167.5 84.6255ZM1167.5 89.1548C1167.18 89.1548 1166.87 89.0599 1166.6 88.882C1166.33 88.7041 1166.13 88.4513 1166 88.1555C1165.88 87.8597 1165.85 87.5342 1165.91 87.2201C1165.97 86.9061 1166.13 86.6177 1166.35 86.3913C1166.58 86.1649 1166.87 86.0107 1167.18 85.9482C1167.5 85.8857 1167.82 85.9178 1168.12 86.0403C1168.41 86.1629 1168.67 86.3704 1168.85 86.6366C1169.02 86.9028 1169.12 87.2158 1169.12 87.536C1169.12 87.9653 1168.95 88.3771 1168.64 88.6807C1168.34 88.9843 1167.93 89.1548 1167.5 89.1548Z" fill="#19191A"/>
</g>
</g>
<g filter="url(#filter9_d_131_29)">
<path d="M1068 264C1068 255.163 1075.16 248 1084 248H1252C1260.84 248 1268 255.163 1268 264V432C1268 440.837 1260.84 448 1252 448H1084C1075.16 448 1068 440.837 1068 432V264Z" fill="#EFEFF0"/>
<g clip-path="url(#clip4_131_29)">
<path d="M1143.23 379.389C1142.86 379.848 1142.36 380.187 1141.79 380.361C1141.23 380.536 1140.62 380.539 1140.05 380.37C1139.49 380.201 1138.98 379.867 1138.6 379.411C1138.23 378.955 1137.99 378.397 1137.93 377.808C1137.87 377.219 1137.98 376.625 1138.26 376.101C1138.54 375.577 1138.96 375.147 1139.48 374.865C1140 374.582 1140.6 374.461 1141.19 374.515C1141.78 374.569 1142.34 374.797 1142.8 375.17C1143.1 375.418 1143.36 375.724 1143.54 376.07C1143.73 376.417 1143.85 376.797 1143.89 377.189C1143.93 377.58 1143.89 377.976 1143.78 378.354C1143.67 378.732 1143.48 379.083 1143.23 379.389ZM1190.84 368.889C1182.16 380.416 1163.68 376.533 1151.87 377.084C1151.87 377.084 1149.77 377.205 1147.65 377.55C1147.65 377.55 1148.45 377.214 1149.47 376.86C1157.77 373.985 1161.7 373.406 1166.8 370.802C1176.29 365.939 1185.75 355.346 1187.67 344.332C1184.01 354.935 1173.02 364.035 1163 367.741C1156.15 370.261 1143.76 372.725 1143.76 372.725L1143.25 372.463C1134.85 368.366 1134.58 350.063 1149.89 344.22C1156.6 341.644 1163.02 343.063 1170.27 341.336C1178.01 339.469 1186.97 333.692 1190.62 326.104C1194.7 338.219 1199.61 357.166 1190.81 368.935L1190.84 368.889Z" fill="#19191A"/>
<path d="M1208.18 398H1131.14C1121.76 398.007 1112.73 394.469 1105.86 388.095C1098.99 381.722 1094.78 372.985 1094.08 363.637C1093.38 354.289 1096.24 345.022 1102.08 337.695C1107.93 330.369 1116.33 325.524 1125.6 324.134C1130.4 317.489 1136.39 310.022 1145.09 304.926C1153.97 299.729 1164.23 297.363 1174.49 298.145C1184.75 298.928 1194.53 302.82 1202.52 309.303L1202.61 309.387C1206.67 312.865 1210.32 316.781 1213.52 321.063C1216.3 324.609 1218.4 328.641 1219.71 332.954C1219.8 333.262 1219.87 333.44 1219.91 333.552C1220.1 333.645 1220.42 333.785 1220.68 333.897L1221.68 334.336C1226.65 336.601 1230.99 340.03 1234.35 344.332C1238.18 349.234 1240.55 355.113 1241.21 361.3C1241.86 367.487 1240.76 373.732 1238.04 379.325C1235.31 384.918 1231.07 389.634 1225.8 392.936C1220.53 396.237 1214.44 397.992 1208.22 398H1208.18ZM1170.61 305.467C1162.97 305.472 1155.46 307.508 1148.86 311.366C1141.35 315.771 1135.93 322.566 1131.62 328.549L1131.45 328.81C1131.05 329.507 1130.49 330.103 1129.83 330.551C1129.16 331 1128.4 331.289 1127.6 331.396C1120.08 332.285 1113.18 336.016 1108.33 341.824C1103.47 347.633 1101.01 355.079 1101.47 362.638C1101.92 370.197 1105.25 377.297 1110.76 382.483C1116.28 387.669 1123.57 390.549 1131.15 390.533H1208.19C1213.01 390.532 1217.74 389.175 1221.83 386.617C1225.92 384.058 1229.21 380.402 1231.33 376.065C1233.44 371.728 1234.29 366.883 1233.79 362.085C1233.28 357.286 1231.44 352.726 1228.47 348.924C1226.74 346.717 1224.68 344.796 1222.36 343.231C1221.17 342.43 1219.92 341.724 1218.62 341.121L1217.79 340.757C1216.71 340.376 1215.72 339.803 1214.84 339.068C1213.69 337.953 1212.89 336.53 1212.54 334.97C1211.47 331.531 1209.77 328.321 1207.52 325.506C1204.67 321.686 1201.41 318.19 1197.79 315.081C1190.11 308.843 1180.51 305.447 1170.61 305.467Z" fill="#19191A"/>
</g>
</g>
<g filter="url(#filter10_d_131_29)">
<path d="M1068 504C1068 495.163 1075.16 488 1084 488H1252C1260.84 488 1268 495.163 1268 504V672C1268 680.837 1260.84 688 1252 688H1084C1075.16 688 1068 680.837 1068 672V504Z" fill="#EFEFF0"/>
<g clip-path="url(#clip5_131_29)">
<path d="M1184.19 540.165L1141.76 582.589L1134.58 575.403V600.424H1159.6L1152.41 593.152L1189.47 556.095L1221.33 587.957L1189.47 619.818L1182.37 612.719L1171.81 623.368L1184.19 635.749C1187.13 638.693 1191.89 638.693 1194.84 635.749L1237.26 593.325C1240.2 590.381 1240.2 585.619 1237.26 582.675L1194.75 540.165C1191.81 537.307 1187.13 537.307 1184.19 540.165Z" fill="#19191A"/>
<path d="M1152.32 635.749L1194.66 593.411L1201.85 600.597V575.576H1176.83L1184.01 582.762L1146.96 619.818L1115.1 587.957L1146.96 556.095L1154.06 563.195L1164.71 552.546L1152.32 540.165C1149.38 537.221 1144.62 537.221 1141.68 540.165L1099.16 582.675C1096.22 585.619 1096.22 590.381 1099.16 593.325L1141.68 635.836C1144.62 638.693 1149.38 638.693 1152.32 635.749Z" fill="#19191A"/>
</g>
</g>
<defs>
<filter id="filter0_d_131_29" x="480.2" y="190.2" width="316" height="316" filterUnits="userSpaceOnUse" color-interpolation-filters="sRGB">
<feFlood flood-opacity="0" result="BackgroundImageFix"/>
<feColorMatrix in="SourceAlpha" type="matrix" values="0 0 0 0 0 0 0 0 0 0 0 0 0 0 0 0 0 0 127 0" result="hardAlpha"/>
<feOffset dx="0.2" dy="0.2"/>
<feGaussianBlur stdDeviation="4"/>
<feComposite in2="hardAlpha" operator="out"/>
<feColorMatrix type="matrix" values="0 0 0 0 0 0 0 0 0 0 0 0 0 0 0 0 0 0 0.25 0"/>
<feBlend mode="normal" in2="BackgroundImageFix" result="effect1_dropShadow_131_29"/>
<feBlend mode="normal" in="SourceGraphic" in2="effect1_dropShadow_131_29" result="shape"/>
</filter>
<filter id="filter1_d_131_29" x="240.2" y="122.2" width="216" height="216" filterUnits="userSpaceOnUse" color-interpolation-filters="sRGB">
<feFlood flood-opacity="0" result="BackgroundImageFix"/>
<feColorMatrix in="SourceAlpha" type="matrix" values="0 0 0 0 0 0 0 0 0 0 0 0 0 0 0 0 0 0 127 0" result="hardAlpha"/>
<feOffset dx="0.2" dy="0.2"/>
<feGaussianBlur stdDeviation="4"/>
<feComposite in2="hardAlpha" operator="out"/>
<feColorMatrix type="matrix" values="0 0 0 0 0 0 0 0 0 0 0 0 0 0 0 0 0 0 0.25 0"/>
<feBlend mode="normal" in2="BackgroundImageFix" result="effect1_dropShadow_131_29"/>
<feBlend mode="normal" in="SourceGraphic" in2="effect1_dropShadow_131_29" result="shape"/>
</filter>
<filter id="filter2_d_131_29" x="240.2" y="357.2" width="216" height="216" filterUnits="userSpaceOnUse" color-interpolation-filters="sRGB">
<feFlood flood-opacity="0" result="BackgroundImageFix"/>
<feColorMatrix in="SourceAlpha" type="matrix" values="0 0 0 0 0 0 0 0 0 0 0 0 0 0 0 0 0 0 127 0" result="hardAlpha"/>
<feOffset dx="0.2" dy="0.2"/>
<feGaussianBlur stdDeviation="4"/>
<feComposite in2="hardAlpha" operator="out"/>
<feColorMatrix type="matrix" values="0 0 0 0 0 0 0 0 0 0 0 0 0 0 0 0 0 0 0.25 0"/>
<feBlend mode="normal" in2="BackgroundImageFix" result="effect1_dropShadow_131_29"/>
<feBlend mode="normal" in="SourceGraphic" in2="effect1_dropShadow_131_29" result="shape"/>
</filter>
<filter id="filter3_d_131_29" x="820.2" y="122.2" width="216" height="216" filterUnits="userSpaceOnUse" color-interpolation-filters="sRGB">
<feFlood flood-opacity="0" result="BackgroundImageFix"/>
<feColorMatrix in="SourceAlpha" type="matrix" values="0 0 0 0 0 0 0 0 0 0 0 0 0 0 0 0 0 0 127 0" result="hardAlpha"/>
<feOffset dx="0.2" dy="0.2"/>
<feGaussianBlur stdDeviation="4"/>
<feComposite in2="hardAlpha" operator="out"/>
<feColorMatrix type="matrix" values="0 0 0 0 0 0 0 0 0 0 0 0 0 0 0 0 0 0 0.25 0"/>
<feBlend mode="normal" in2="BackgroundImageFix" result="effect1_dropShadow_131_29"/>
<feBlend mode="normal" in="SourceGraphic" in2="effect1_dropShadow_131_29" result="shape"/>
</filter>
<filter id="filter4_d_131_29" x="820.2" y="357.2" width="216" height="216" filterUnits="userSpaceOnUse" color-interpolation-filters="sRGB">
<feFlood flood-opacity="0" result="BackgroundImageFix"/>
<feColorMatrix in="SourceAlpha" type="matrix" values="0 0 0 0 0 0 0 0 0 0 0 0 0 0 0 0 0 0 127 0" result="hardAlpha"/>
<feOffset dx="0.2" dy="0.2"/>
<feGaussianBlur stdDeviation="4"/>
<feComposite in2="hardAlpha" operator="out"/>
<feColorMatrix type="matrix" values="0 0 0 0 0 0 0 0 0 0 0 0 0 0 0 0 0 0 0.25 0"/>
<feBlend mode="normal" in2="BackgroundImageFix" result="effect1_dropShadow_131_29"/>
<feBlend mode="normal" in="SourceGraphic" in2="effect1_dropShadow_131_29" result="shape"/>
</filter>
<filter id="filter5_d_131_29" x="0.2" y="0.2" width="216" height="216" filterUnits="userSpaceOnUse" color-interpolation-filters="sRGB">
<feFlood flood-opacity="0" result="BackgroundImageFix"/>
<feColorMatrix in="SourceAlpha" type="matrix" values="0 0 0 0 0 0 0 0 0 0 0 0 0 0 0 0 0 0 127 0" result="hardAlpha"/>
<feOffset dx="0.2" dy="0.2"/>
<feGaussianBlur stdDeviation="4"/>
<feComposite in2="hardAlpha" operator="out"/>
<feColorMatrix type="matrix" values="0 0 0 0 0 0 0 0 0 0 0 0 0 0 0 0 0 0 0.25 0"/>
<feBlend mode="normal" in2="BackgroundImageFix" result="effect1_dropShadow_131_29"/>
<feBlend mode="normal" in="SourceGraphic" in2="effect1_dropShadow_131_29" result="shape"/>
</filter>
<filter id="filter6_d_131_29" x="0.2" y="240.2" width="216" height="216" filterUnits="userSpaceOnUse" color-interpolation-filters="sRGB">
<feFlood flood-opacity="0" result="BackgroundImageFix"/>
<feColorMatrix in="SourceAlpha" type="matrix" values="0 0 0 0 0 0 0 0 0 0 0 0 0 0 0 0 0 0 127 0" result="hardAlpha"/>
<feOffset dx="0.2" dy="0.2"/>
<feGaussianBlur stdDeviation="4"/>
<feComposite in2="hardAlpha" operator="out"/>
<feColorMatrix type="matrix" values="0 0 0 0 0 0 0 0 0 0 0 0 0 0 0 0 0 0 0.25 0"/>
<feBlend mode="normal" in2="BackgroundImageFix" result="effect1_dropShadow_131_29"/>
<feBlend mode="normal" in="SourceGraphic" in2="effect1_dropShadow_131_29" result="shape"/>
</filter>
<filter id="filter7_d_131_29" x="0.2" y="480.2" width="216" height="216" filterUnits="userSpaceOnUse" color-interpolation-filters="sRGB">
<feFlood flood-opacity="0" result="BackgroundImageFix"/>
<feColorMatrix in="SourceAlpha" type="matrix" values="0 0 0 0 0 0 0 0 0 0 0 0 0 0 0 0 0 0 127 0" result="hardAlpha"/>
<feOffset dx="0.2" dy="0.2"/>
<feGaussianBlur stdDeviation="4"/>
<feComposite in2="hardAlpha" operator="out"/>
<feColorMatrix type="matrix" values="0 0 0 0 0 0 0 0 0 0 0 0 0 0 0 0 0 0 0.25 0"/>
<feBlend mode="normal" in2="BackgroundImageFix" result="effect1_dropShadow_131_29"/>
<feBlend mode="normal" in="SourceGraphic" in2="effect1_dropShadow_131_29" result="shape"/>
</filter>
<filter id="filter8_d_131_29" x="1060.2" y="0.2" width="216" height="216" filterUnits="userSpaceOnUse" color-interpolation-filters="sRGB">
<feFlood flood-opacity="0" result="BackgroundImageFix"/>
<feColorMatrix in="SourceAlpha" type="matrix" values="0 0 0 0 0 0 0 0 0 0 0 0 0 0 0 0 0 0 127 0" result="hardAlpha"/>
<feOffset dx="0.2" dy="0.2"/>
<feGaussianBlur stdDeviation="4"/>
<feComposite in2="hardAlpha" operator="out"/>
<feColorMatrix type="matrix" values="0 0 0 0 0 0 0 0 0 0 0 0 0 0 0 0 0 0 0.25 0"/>
<feBlend mode="normal" in2="BackgroundImageFix" result="effect1_dropShadow_131_29"/>
<feBlend mode="normal" in="SourceGraphic" in2="effect1_dropShadow_131_29" result="shape"/>
</filter>
<filter id="filter9_d_131_29" x="1060.2" y="240.2" width="216" height="216" filterUnits="userSpaceOnUse" color-interpolation-filters="sRGB">
<feFlood flood-opacity="0" result="BackgroundImageFix"/>
<feColorMatrix in="SourceAlpha" type="matrix" values="0 0 0 0 0 0 0 0 0 0 0 0 0 0 0 0 0 0 127 0" result="hardAlpha"/>
<feOffset dx="0.2" dy="0.2"/>
<feGaussianBlur stdDeviation="4"/>
<feComposite in2="hardAlpha" operator="out"/>
<feColorMatrix type="matrix" values="0 0 0 0 0 0 0 0 0 0 0 0 0 0 0 0 0 0 0.25 0"/>
<feBlend mode="normal" in2="BackgroundImageFix" result="effect1_dropShadow_131_29"/>
<feBlend mode="normal" in="SourceGraphic" in2="effect1_dropShadow_131_29" result="shape"/>
</filter>
<filter id="filter10_d_131_29" x="1060.2" y="480.2" width="216" height="216" filterUnits="userSpaceOnUse" color-interpolation-filters="sRGB">
<feFlood flood-opacity="0" result="BackgroundImageFix"/>
<feColorMatrix in="SourceAlpha" type="matrix" values="0 0 0 0 0 0 0 0 0 0 0 0 0 0 0 0 0 0 127 0" result="hardAlpha"/>
<feOffset dx="0.2" dy="0.2"/>
<feGaussianBlur stdDeviation="4"/>
<feComposite in2="hardAlpha" operator="out"/>
<feColorMatrix type="matrix" values="0 0 0 0 0 0 0 0 0 0 0 0 0 0 0 0 0 0 0.25 0"/>
<feBlend mode="normal" in2="BackgroundImageFix" result="effect1_dropShadow_131_29"/>
<feBlend mode="normal" in="SourceGraphic" in2="effect1_dropShadow_131_29" result="shape"/>
</filter>
<clipPath id="clip0_131_29">
<rect width="92.8571" height="130" fill="white" transform="translate(882 165)"/>
</clipPath>
<clipPath id="clip1_131_29">
<rect width="125.176" height="130" fill="white" transform="translate(865 400)"/>
</clipPath>
<clipPath id="clip2_131_29">
<rect width="104.093" height="130" fill="white" transform="translate(56 283)"/>
</clipPath>
<clipPath id="clip3_131_29">
<rect width="93.0675" height="130" fill="white" transform="translate(1121 43)"/>
</clipPath>
<clipPath id="clip4_131_29">
<rect width="147.387" height="100" fill="white" transform="translate(1094 298)"/>
</clipPath>
<clipPath id="clip5_131_29">
<rect width="142.424" height="100" fill="white" transform="translate(1097 538)"/>
</clipPath>
</defs>
</svg>
