<svg width="41" height="43" viewBox="0 0 41 43" fill="none" xmlns="http://www.w3.org/2000/svg">
<path fill-rule="evenodd" clip-rule="evenodd" d="M11 0H0L16.1609 28.6093V42.4545V42.4545C21.661 42.4545 26.1197 37.9958 26.1197 32.4958V28.6093L20.9581 18.3469L11 0Z" fill="#3D3B40"/>
<path fill-rule="evenodd" clip-rule="evenodd" d="M40.9176 0.00129187C40.8301 0.000430622 40.7424 0 40.6545 0C36.9705 0 33.6442 0.823158 30.6754 2.46946C27.7067 4.11577 25.3519 6.52451 23.6112 9.69571C21.8704 12.8668 21 16.7329 21 21.294C21 25.8416 21.8569 29.701 23.5707 32.8722C25.2844 36.0433 27.619 38.4588 30.5742 40.1186C33.543 41.7649 36.9031 42.5881 40.6545 42.5881L40.8569 42.5874V39.1866C40.8569 36.2135 38.2344 34.0179 35.7358 32.4066V32.4066C34.3054 31.462 33.1921 30.0653 32.396 28.2166C31.6133 26.3544 31.222 24.0469 31.222 21.294C31.222 18.6491 31.6066 16.3956 32.3757 14.5334C33.1584 12.6712 34.2717 11.2475 35.7156 10.2624V10.2624C38.2279 8.56429 40.9176 6.3266 40.9176 3.29426V0.00129187Z" fill="#525CEB"/>
</svg>
